# Blender 4.4.1
# www.blender.org
mtllib neko.mtl
o 立方体.001
v -0.100000 1.710539 -1.074881
v -0.100000 3.130313 -0.949776
v -0.100000 1.556156 -1.190913
v -0.100000 3.130313 -1.157581
v 0.100000 1.710539 -1.074881
v 0.100000 3.130313 -0.949776
v 0.100000 1.556156 -1.190913
v 0.100000 3.130313 -1.157581
v -0.100000 2.321284 -1.051777
v -0.100000 2.375947 -1.255839
v 0.100000 2.375947 -1.255839
v 0.100000 2.321284 -1.051777
v -0.100000 2.013275 -1.441920
v 0.100000 2.013275 -1.441920
v 0.100000 1.998326 -1.243931
v -0.100000 1.998326 -1.243931
v -0.100000 1.691094 -1.354015
v 0.100000 1.691094 -1.354015
v 0.100000 1.834505 -1.246775
v -0.100000 1.834505 -1.246775
v -0.100000 2.144367 -1.154977
v -0.100000 2.212594 -1.351755
v 0.100000 2.212594 -1.351755
v 0.100000 2.144367 -1.154977
v -0.100000 2.725799 -1.088405
v -0.100000 2.753130 -1.280897
v 0.100000 2.753130 -1.280897
v 0.100000 2.725799 -1.088405
v -0.100000 2.564538 -1.271293
v 0.100000 2.564538 -1.271293
v 0.100000 2.523541 -1.059281
v -0.100000 2.523541 -1.059281
v -0.100000 2.928056 -1.042806
v -0.100000 2.941722 -1.241143
v 0.100000 2.941722 -1.241143
v 0.100000 2.928056 -1.042806
v -0.100000 1.450450 -1.050269
v -0.100000 1.604832 -0.934237
v 0.100000 1.450450 -1.050269
v 0.100000 1.604832 -0.934237
v -0.100000 1.389555 -0.969249
v -0.100000 1.543938 -0.853217
v 0.100000 1.389555 -0.969249
v 0.100000 1.543938 -0.853217
v 0.874484 1.770276 -1.000000
v 1.000000 1.084233 -1.000000
v 0.874484 1.770276 1.000000
v 1.000000 1.089010 1.000000
v -0.874484 1.770276 -1.000000
v -1.000000 1.084233 -1.000000
v -0.874484 1.770276 1.000000
v -1.000000 1.089010 1.000000
v 0.000000 0.625899 -1.000000
v 0.000000 1.990610 1.000000
v 0.000000 0.571556 0.752997
v 0.000000 1.990610 -1.000000
v -0.899470 1.013672 -0.043589
v 0.874484 1.770276 -0.043589
v -0.874484 1.770276 -0.043589
v 0.899470 1.013672 -0.043589
v 0.000000 0.430203 -0.043589
v 0.000000 1.990610 -0.043589
v -1.000000 1.089010 0.494303
v 0.874484 1.770276 0.494303
v 0.000000 0.396104 0.494303
v 0.000000 1.990610 0.494303
v -0.874484 1.770276 0.494303
v 1.000000 1.089010 0.494303
v -0.874484 1.770276 -0.505697
v 1.000000 1.084233 -0.505697
v -1.000000 1.084233 -0.505697
v 0.874484 1.770276 -0.505697
v 0.000000 0.423670 -0.505697
v 0.000000 1.990610 -0.505697
v -0.500000 -0.009390 -1.000000
v -0.500000 1.990610 1.000000
v -0.500000 -0.009390 0.752997
v -0.500000 1.990610 -1.000000
v -0.500000 0.477313 -0.043589
v -0.500000 1.990610 -0.043589
v -0.500000 -0.009390 0.494303
v -0.500000 1.990610 0.494303
v -0.500000 1.990610 -0.505697
v -0.500000 -0.009390 -0.715481
v 0.500000 -0.009390 0.752997
v 0.500000 1.990610 -1.000000
v 0.500000 -0.009390 -1.000000
v 0.500000 1.990610 1.000000
v 0.500000 1.990610 -0.043589
v 0.500000 0.477313 -0.043589
v 0.500000 1.990610 0.494303
v 0.500000 -0.009390 0.494303
v 0.500000 -0.009390 -0.715481
v 0.500000 1.990610 -0.505697
v -0.250000 0.571556 0.752997
v -0.250000 1.990610 -1.000000
v -0.250000 1.990610 -0.043589
v -0.250000 1.990610 0.494303
v -0.250000 1.990610 -0.505697
v -0.250000 0.625899 -1.000000
v -0.250000 1.990610 1.000000
v -0.250000 0.386925 -0.043589
v -0.250000 0.396104 0.494303
v -0.250000 0.423670 -0.505697
v 0.250000 0.625899 -1.000000
v 0.250000 1.990610 1.000000
v 0.250000 0.386925 -0.043589
v 0.250000 0.396104 0.494303
v 0.250000 0.423670 -0.505697
v 0.250000 0.571556 0.752997
v 0.250000 1.990610 -1.000000
v 0.250000 1.990610 -0.043589
v 0.250000 1.990610 0.494303
v 0.250000 1.990610 -0.505697
v -0.750000 -0.009390 -1.000000
v -0.750000 1.882403 1.000000
v -0.750000 0.567700 -0.043589
v -0.750000 -0.009390 0.494303
v -0.750000 -0.009390 -0.715481
v -0.750000 -0.009390 0.752997
v -0.750000 1.882403 -1.000000
v -0.750000 1.882403 -0.043589
v -0.750000 1.882403 0.494303
v -0.750000 1.882403 -0.505697
v 0.750466 -0.009390 0.752997
v 0.750466 1.882403 -1.000000
v 0.750466 1.882403 -0.043589
v 0.750466 1.882403 0.494303
v 0.750466 1.882403 -0.505697
v 0.750466 -0.009390 -1.000000
v 0.750466 1.882403 1.000000
v 0.750466 0.567869 -0.043589
v 0.750466 -0.009390 0.494303
v 0.750466 -0.009390 -0.715481
v 1.000000 1.533825 -1.000000
v -1.000000 1.536232 1.000000
v 1.000000 1.536232 1.000000
v -1.000000 1.533825 -1.000000
v 0.000000 1.302839 -1.000000
v 0.000000 1.275452 1.000000
v 0.949336 1.498264 -0.043589
v -0.949336 1.498264 -0.043589
v -1.000000 1.536232 0.494303
v 1.000000 1.536232 0.494303
v 1.000000 1.533825 -0.505697
v -1.000000 1.533825 -0.505697
v -0.500000 0.982674 -1.000000
v -0.500000 0.982674 1.000000
v 0.500000 0.982674 1.000000
v 0.500000 0.982674 -1.000000
v -0.250000 1.275452 1.000000
v -0.250000 1.302839 -1.000000
v 0.250000 1.302839 -1.000000
v 0.250000 1.275452 1.000000
v -0.750000 0.982674 -1.000000
v -0.750000 0.982674 1.000000
v 0.750466 0.982674 1.000000
v 0.750466 0.982674 -1.000000
v -0.700000 1.656969 1.150888
v -0.700000 2.302006 1.150888
v -0.700000 1.586658 0.374282
v -0.700000 2.301213 0.374282
v 0.700000 1.656969 1.150888
v 0.700000 2.302006 1.150888
v 0.700000 1.586658 0.374282
v 0.700000 2.301213 0.374282
v 0.002631 1.384282 0.374282
v 0.002631 2.301213 0.374282
v 0.002631 1.521473 1.374282
v 0.002631 2.238148 1.374282
v 0.351316 2.301213 0.374282
v 0.351316 1.521473 1.374282
v 0.351316 1.384282 0.374282
v 0.351316 2.238148 1.374282
v -0.348684 1.384282 0.374282
v -0.348684 2.238148 1.374282
v -0.348684 2.301213 0.374282
v -0.348684 1.521473 1.374282
v -0.700000 1.586658 0.874282
v -0.700000 2.484282 0.874282
v 0.700000 1.586658 0.874282
v 0.700000 2.484282 0.874282
v 0.002631 2.484282 0.874282
v 0.002631 1.384282 0.874282
v 0.351316 3.021521 0.874282
v 0.351316 1.384282 0.874282
v -0.348684 1.384282 0.874282
v -0.348684 3.021521 0.874282
v -0.700000 1.586658 1.124282
v 0.700000 2.484282 0.999208
v 0.002631 2.484282 0.924603
v 0.002631 1.384282 1.124282
v 0.351316 2.484282 0.868981
v 0.351316 1.384282 1.124282
v -0.348684 1.384282 1.124282
v -0.348684 2.484282 0.868981
v -0.700000 2.484282 0.999208
v 0.700000 1.586658 1.124282
v -0.700000 2.484282 0.624282
v 0.700000 1.586658 0.624282
v -0.700000 1.586658 0.624282
v 0.700000 2.484282 0.624282
v 0.002631 2.484282 0.624282
v 0.002631 1.384282 0.624282
v 0.351316 2.484282 0.624282
v 0.351316 1.384282 0.624282
v -0.348684 1.384282 0.624282
v -0.348684 2.484282 0.624282
v -0.700000 1.934282 1.150888
v -0.700000 1.934282 0.374282
v 0.700000 1.934282 0.374282
v 0.700000 1.934282 1.150888
v 0.002631 1.934282 1.374282
v 0.002631 1.934282 0.374282
v 0.351316 1.934282 1.374282
v 0.351316 1.934282 0.374282
v -0.348684 1.934282 0.374282
v -0.348684 1.934282 1.374282
v 0.700000 1.934282 0.874282
v -0.700000 1.934282 0.874282
v -0.700000 1.934282 1.061745
v 0.700000 1.934282 1.061745
v 0.700000 1.934282 0.624282
v -0.700000 1.934282 0.624282
v -0.700000 2.209282 1.150888
v -0.700000 2.209282 0.374282
v 0.700000 2.209282 0.374282
v 0.700000 2.209282 1.150888
v 0.002631 2.209282 1.374282
v 0.002631 2.209282 0.374282
v 0.351316 2.209282 1.374282
v 0.351316 2.209282 0.374282
v -0.348684 2.209282 0.374282
v -0.348684 2.209282 1.374282
v 0.700000 2.209282 0.874282
v -0.700000 2.209282 0.874282
v -0.700000 2.209282 1.030476
v 0.700000 2.209282 1.030476
v 0.700000 2.209282 0.624282
v -0.700000 2.209282 0.624282
v -0.700000 1.659282 0.374282
v 0.700000 1.659282 0.374282
v 0.700000 1.659282 1.150888
v 0.002631 1.659282 1.374282
v 0.002631 1.659282 0.374282
v 0.351316 1.659282 1.374282
v 0.351316 1.659282 0.374282
v -0.348684 1.659282 0.374282
v -0.348684 1.659282 1.374282
v 0.700000 1.659282 0.874282
v -0.700000 1.659282 0.874282
v -0.700000 1.659282 1.093013
v 0.700000 1.659282 1.093013
v 0.700000 1.659282 0.624282
v -0.700000 1.659282 0.624282
v -0.700000 1.659282 1.150888
vn -1.0000 -0.0000 -0.0000
vn -0.0000 0.4051 -0.9143
vn 1.0000 -0.0000 -0.0000
vn -0.0000 -0.4179 0.9085
vn -0.0000 0.7994 0.6008
vn -0.0000 1.0000 -0.0000
vn -0.0000 -0.5039 0.8638
vn -0.0000 0.5063 -0.8623
vn -0.0000 -0.2632 -0.9647
vn -0.0000 -0.0174 0.9998
vn -0.0000 0.8111 0.5849
vn -0.0000 -0.7705 -0.6374
vn -0.0000 0.4122 -0.9111
vn -0.0000 -0.5202 0.8540
vn -0.0000 0.1425 0.9898
vn -0.0000 -0.0509 -0.9987
vn -0.0000 -0.0817 -0.9967
vn -0.0000 0.0371 0.9993
vn -0.0000 -0.2199 0.9755
vn -0.0000 0.2063 -0.9785
vn -0.0000 -0.7994 -0.6008
vn -0.0000 -0.6008 0.7994
vn -0.6693 0.7430 -0.0000
vn -0.0000 -0.0000 1.0000
vn -0.8833 0.4689 -0.0000
vn 0.9752 -0.2215 -0.0000
vn 0.8813 0.4726 -0.0000
vn -0.0000 -0.0000 -1.0000
vn -0.0000 -0.8276 0.5613
vn 0.1701 -0.9823 -0.0781
vn 0.9566 0.2632 0.1251
vn 0.9408 -0.2570 0.2208
vn -0.9584 0.2637 -0.1089
vn -0.8813 0.4726 -0.0000
vn -0.0000 -0.9999 0.0171
vn 0.9584 0.2637 -0.1089
vn 0.9487 -0.2155 -0.2313
vn 0.9749 -0.2225 -0.0000
vn 0.8833 0.4689 -0.0000
vn -0.0000 -0.9255 -0.3787
vn -0.9566 0.2632 0.1251
vn -0.0000 -1.0000 -0.0000
vn -0.2393 -0.6620 -0.7103
vn -0.2645 -0.7316 0.6284
vn 0.3966 0.9180 -0.0000
vn -0.9203 -0.3621 -0.1482
vn 0.3400 -0.9403 0.0160
vn 0.3391 -0.9378 -0.0746
vn -0.8872 -0.3818 0.2589
vn 0.8660 -0.5000 -0.0000
vn 0.7689 -0.4741 -0.4290
vn 0.6733 -0.5988 0.4338
vn 0.8512 -0.5248 -0.0000
vn -0.0000 -0.9999 0.0141
vn -0.1702 -0.9834 -0.0623
vn -0.9751 -0.2219 -0.0000
vn -0.9366 -0.3139 0.1558
vn -0.9399 -0.3150 -0.1315
vn -0.9749 -0.2228 -0.0000
vn -0.3972 0.9177 -0.0000
vn 0.6707 0.7418 -0.0000
vn -0.0000 -0.7415 -0.6709
vn -0.0000 -0.8099 0.5866
vn 0.1024 -0.2403 0.9653
vn -0.0000 -0.2416 0.9704
vn -0.4896 -0.2107 0.8461
vn -0.0000 -0.3311 0.9436
vn 0.4896 -0.2107 0.8461
vn -0.9753 -0.1004 0.1968
vn 0.9804 -0.1009 -0.1691
vn -0.9804 -0.1009 -0.1691
vn 0.9753 -0.1004 0.1968
vn -0.1022 -0.2403 0.9653
vn -0.5366 -0.0000 0.8438
vn 0.4535 -0.7813 0.4288
vn -0.1143 0.8931 0.4350
vn 0.0697 0.8968 0.4368
vn -0.0000 -0.8767 0.4811
vn 0.5395 -0.0000 0.8420
vn -0.2759 0.6148 0.7388
vn -0.5903 -0.2857 0.7550
vn -0.0000 0.8772 0.4801
vn -0.4992 -0.8665 -0.0000
vn -0.5450 0.3537 -0.7602
vn -0.5421 0.3545 -0.7618
vn 0.5020 -0.8649 -0.0000
vn 0.0152 -0.0099 0.9998
vn 0.0151 -0.0099 0.9998
vn -0.0000 0.8068 -0.5908
vn 0.9368 -0.3131 0.1560
vn 0.1702 -0.9834 -0.0623
vn 0.9402 -0.3142 -0.1317
vn -0.8660 -0.5000 -0.0000
vn -0.7689 -0.4741 -0.4290
vn -0.6733 -0.5988 0.4338
vn -0.8512 -0.5248 -0.0000
vn 0.9203 -0.3621 -0.1482
vn -0.3400 -0.9403 0.0160
vn -0.3391 -0.9378 -0.0746
vn 0.8872 -0.3818 0.2589
vn -0.1701 -0.9823 -0.0781
vn -0.9407 -0.2574 0.2211
vn -0.9485 -0.2159 -0.2316
vn 0.2393 -0.6619 -0.7104
vn 0.2645 -0.7315 0.6285
vn -0.3615 -0.3087 0.8798
vn 0.3615 -0.3087 0.8798
vn -0.9940 -0.0000 0.1090
vn 0.9956 -0.0000 -0.0938
vn -0.9956 -0.0000 -0.0938
vn 0.9940 -0.0000 0.1090
vn 0.5931 -0.2849 0.7530
vn 0.2740 0.6152 0.7392
vn 0.1151 0.8930 0.4350
vn -0.4508 -0.7825 0.4294
vn -0.0692 0.8969 0.4369
vn 0.5421 0.3545 -0.7618
vn 0.5450 0.3537 -0.7602
vn -0.0151 -0.0099 0.9998
vn -0.0152 -0.0099 0.9998
vn -0.5365 -0.0000 0.8439
vn 0.5394 -0.0000 0.8420
vt 0.734431 0.345929
vt 0.748735 0.316725
vt 0.762002 0.342332
vt 0.719726 0.584748
vt 0.747698 0.611456
vt 0.719726 0.611456
vt 0.667227 0.316725
vt 0.681531 0.345935
vt 0.653959 0.342343
vt 0.771197 0.584748
vt 0.799166 0.614674
vt 0.771194 0.614673
vt 0.850648 0.732569
vt 0.822665 0.753912
vt 0.822677 0.732553
vt 0.747698 0.850839
vt 0.719709 0.879659
vt 0.719726 0.850822
vt 0.771194 0.698757
vt 0.799162 0.725393
vt 0.771190 0.725392
vt 0.647100 0.421199
vt 0.659213 0.454384
vt 0.632322 0.443188
vt 0.719726 0.690612
vt 0.747698 0.713842
vt 0.719726 0.713842
vt 0.756749 0.454340
vt 0.768861 0.421162
vt 0.783638 0.443141
vt 0.772196 0.496800
vt 0.797919 0.470188
vt 0.788385 0.515899
vt 0.719726 0.742076
vt 0.747698 0.786756
vt 0.719726 0.786756
vt 0.618041 0.470247
vt 0.643764 0.496861
vt 0.627575 0.515970
vt 0.771187 0.747457
vt 0.799158 0.770169
vt 0.771186 0.770168
vt 0.822691 0.706538
vt 0.666708 0.515627
vt 0.649198 0.536192
vt 0.747698 0.804952
vt 0.719726 0.804952
vt 0.749254 0.515565
vt 0.766763 0.536120
vt 0.770407 0.473962
vt 0.747698 0.742076
vt 0.645554 0.474016
vt 0.799159 0.747459
vt 0.771192 0.643598
vt 0.799165 0.670951
vt 0.771193 0.670950
vt 0.646545 0.394741
vt 0.673447 0.373783
vt 0.675794 0.402265
vt 0.719726 0.637984
vt 0.747698 0.664310
vt 0.719726 0.664310
vt 0.742515 0.373766
vt 0.769416 0.394712
vt 0.740168 0.402240
vt 0.740839 0.430530
vt 0.747698 0.690612
vt 0.675123 0.430564
vt 0.799166 0.698758
vt 0.799164 0.643599
vt 0.646807 0.368332
vt 0.747698 0.637984
vt 0.769154 0.368311
vt 0.685444 0.531578
vt 0.678727 0.561333
vt 0.667934 0.552144
vt 0.719726 0.819153
vt 0.730518 0.531516
vt 0.855718 0.253790
vt 0.879506 0.281766
vt 0.855717 0.281762
vt 0.737235 0.561260
vt 0.719726 0.540704
vt 0.850637 0.753929
vt 0.822658 0.766217
vt 0.747698 0.819153
vt 0.719726 0.827333
vt 0.559605 0.223061
vt 0.542153 0.291272
vt 0.542195 0.221097
vt 0.256499 0.026713
vt 0.291464 0.074578
vt 0.256499 0.151114
vt 0.011757 0.423137
vt 0.044344 0.354127
vt 0.044356 0.423258
vt 0.678388 0.082506
vt 0.832225 0.046256
vt 0.832226 0.082436
vt 0.583218 0.082471
vt 0.615840 0.011779
vt 0.615841 0.082506
vt 0.330080 0.351625
vt 0.378811 0.316725
vt 0.455862 0.351625
vt 0.314953 0.491550
vt 0.411103 0.456585
vt 0.411103 0.491550
vt 0.151586 0.242861
vt 0.186560 0.213156
vt 0.186550 0.242862
vt 0.116639 0.011746
vt 0.151604 0.110629
vt 0.116639 0.110627
vt 0.437300 0.219149
vt 0.402293 0.289304
vt 0.402335 0.219128
vt 0.437382 0.080380
vt 0.402379 0.144486
vt 0.402418 0.080359
vt 0.186514 0.260109
vt 0.151566 0.249473
vt 0.186531 0.255458
vt 0.616179 0.222366
vt 0.583219 0.157700
vt 0.621196 0.157721
vt 0.679058 0.222366
vt 0.751493 0.157666
vt 0.832228 0.251636
vt 0.044045 0.563115
vt 0.011769 0.487766
vt 0.049525 0.487838
vt 0.559688 0.084292
vt 0.542239 0.146454
vt 0.542277 0.082327
vt 0.011795 0.633719
vt 0.044057 0.633840
vt 0.437344 0.144506
vt 0.559649 0.148418
vt 0.559728 0.015698
vt 0.542318 0.013733
vt 0.679059 0.291499
vt 0.832228 0.291429
vt 0.583221 0.291463
vt 0.616180 0.291499
vt 0.505739 0.456585
vt 0.531983 0.491550
vt 0.505739 0.491550
vt 0.437423 0.011785
vt 0.402458 0.011765
vt 0.221460 0.330396
vt 0.256436 0.324406
vt 0.256425 0.330397
vt 0.507353 0.011826
vt 0.472347 0.080400
vt 0.472388 0.011806
vt 0.507274 0.144547
vt 0.472265 0.219169
vt 0.472309 0.144527
vt 0.955522 0.699368
vt 0.920557 0.765203
vt 0.920557 0.686732
vt 0.507312 0.080421
vt 0.221496 0.242962
vt 0.256461 0.230466
vt 0.221515 0.298930
vt 0.256490 0.293484
vt 0.256480 0.298931
vt 0.330080 0.561480
vt 0.455862 0.526515
vt 0.455862 0.561480
vt 0.186569 0.110630
vt 0.221534 0.011750
vt 0.221534 0.151113
vt 0.507230 0.219190
vt 0.472223 0.289345
vt 0.367493 0.011744
vt 0.332422 0.082204
vt 0.332463 0.013610
vt 0.981370 0.883394
vt 0.912162 0.821759
vt 0.981370 0.793658
vt 0.329024 0.770870
vt 0.339477 0.846339
vt 0.340746 0.771111
vt 0.367414 0.144465
vt 0.332340 0.220973
vt 0.332384 0.146331
vt 0.116584 0.260106
vt 0.081636 0.242957
vt 0.116601 0.255455
vt 0.367453 0.080339
vt 0.367370 0.219108
vt 0.332298 0.291149
vt 0.046644 0.026704
vt 0.081674 0.151107
vt 0.046644 0.151106
vt 0.411103 0.421620
vt 0.314953 0.386655
vt 0.455862 0.386655
vt 0.397091 0.882278
vt 0.314953 0.882519
vt 0.437258 0.289324
vt 0.151604 0.011747
vt 0.470502 0.988256
vt 0.511407 0.905845
vt 0.507332 0.973188
vt 0.450114 0.882286
vt 0.461251 0.807127
vt 0.518182 0.807057
vt 0.221471 0.324405
vt 0.518181 0.770876
vt 0.314953 0.526515
vt 0.116621 0.242860
vt 0.151595 0.213155
vt 0.314953 0.456585
vt 0.151549 0.260107
vt 0.505739 0.421620
vt 0.531983 0.456585
vt 0.367328 0.289283
vt 0.081674 0.011744
vt 0.378811 0.596445
vt 0.106572 0.563115
vt 0.261063 0.599054
vt 0.106584 0.633840
vt 0.107214 0.423258
vt 0.180359 0.487646
vt 0.117459 0.487790
vt 0.107202 0.354127
vt 0.261026 0.393678
vt 0.507188 0.289365
vt 0.011744 0.074566
vt 0.314953 0.293093
vt 0.314995 0.222918
vt 0.315039 0.148275
vt 0.315077 0.084148
vt 0.315118 0.015554
vt 0.046570 0.330389
vt 0.081611 0.324399
vt 0.081600 0.330390
vt 0.920557 0.597408
vt 0.955588 0.663243
vt 0.920557 0.663243
vt 0.046581 0.324398
vt 0.046625 0.298923
vt 0.081665 0.293477
vt 0.081656 0.298924
vt 0.594552 0.351625
vt 0.594552 0.386655
vt 0.011744 0.136402
vt 0.046635 0.293475
vt 0.221525 0.293482
vt 0.441664 0.596445
vt 0.594552 0.561480
vt 0.116630 0.213153
vt 0.594552 0.526515
vt 0.689014 0.157707
vt 0.441664 0.316725
vt 0.678387 0.011779
vt 0.291464 0.136413
vt 0.217498 0.695777
vt 0.252462 0.682918
vt 0.252462 0.695771
vt 0.868569 0.181534
vt 0.855717 0.132767
vt 0.868569 0.132767
vt 0.103519 0.695789
vt 0.120360 0.682821
vt 0.120360 0.695789
vt 0.364097 0.624057
vt 0.413224 0.632754
vt 0.364097 0.628048
vt 0.436713 0.719402
vt 0.485489 0.723152
vt 0.485479 0.747386
vt 0.897069 0.633925
vt 0.854743 0.683037
vt 0.822658 0.633883
vt 0.078436 0.903909
vt 0.011773 0.855105
vt 0.086184 0.855147
vt 0.314953 0.747380
vt 0.364097 0.723148
vt 0.364088 0.747382
vt 0.485489 0.624061
vt 0.534256 0.628054
vt 0.485489 0.628052
vt 0.541670 0.820011
vt 0.554522 0.770876
vt 0.554522 0.820011
vt 0.436714 0.632754
vt 0.043915 0.806356
vt 0.068141 0.806369
vt 0.534246 0.747387
vt 0.534256 0.723154
vt 0.868569 0.230301
vt 0.855717 0.181534
vt 0.541670 0.869146
vt 0.554522 0.869146
vt 0.413223 0.719402
vt 0.413224 0.709120
vt 0.889379 0.584786
vt 0.822687 0.584748
vt 0.314962 0.628046
vt 0.821407 0.494341
vt 0.822433 0.543476
vt 0.821407 0.543476
vt 0.849375 0.828622
vt 0.819801 0.863925
vt 0.819795 0.828960
vt 0.878145 0.793667
vt 0.883407 0.842443
vt 0.878143 0.842434
vt 0.143849 0.855096
vt 0.144874 0.903862
vt 0.143849 0.903862
vt 0.883405 0.891578
vt 0.878141 0.891569
vt 0.144874 0.806329
vt 0.219980 0.855096
vt 0.822433 0.445206
vt 0.897538 0.494341
vt 0.870026 0.386752
vt 0.898635 0.351690
vt 0.898635 0.386655
vt 0.046709 0.657329
vt 0.081674 0.695790
vt 0.046709 0.695790
vt 0.165062 0.657338
vt 0.182534 0.695783
vt 0.160689 0.695787
vt 0.143849 0.682826
vt 0.143849 0.695790
vt 0.618068 0.804114
vt 0.618041 0.853249
vt 0.619128 0.804114
vt 0.849382 0.863586
vt 0.819807 0.898889
vt 0.883409 0.793677
vt 0.888672 0.842453
vt 0.855745 0.011744
vt 0.855717 0.060511
vt 0.858376 0.011744
vt 0.888670 0.891588
vt 0.855912 0.109278
vt 0.930110 0.060381
vt 0.618237 0.902384
vt 0.692434 0.853119
vt 0.870025 0.351788
vt 0.898634 0.316725
vt 0.099146 0.657329
vt 0.011744 0.682933
vt 0.011744 0.695791
vt 0.870026 0.421717
vt 0.898636 0.421620
vt 0.589246 0.718224
vt 0.557773 0.669069
vt 0.589275 0.669089
vt 0.274999 0.855116
vt 0.243469 0.903862
vt 0.243498 0.855096
vt 0.872877 0.891560
vt 0.275028 0.806349
vt 0.243526 0.806329
vt 0.872881 0.793658
vt 0.872879 0.842425
vt 0.819788 0.793996
vt 0.557802 0.619934
vt 0.589303 0.619954
vt 0.182534 0.657335
vt 0.771199 0.863925
vt 0.809641 0.828960
vt 0.809647 0.863925
vt 0.821409 0.421717
vt 0.859869 0.386752
vt 0.859869 0.421717
vt 0.859868 0.351788
vt 0.821407 0.325569
vt 0.859868 0.321196
vt 0.143849 0.734239
vt 0.151943 0.772685
vt 0.143849 0.772687
vt 0.771204 0.890142
vt 0.809653 0.894516
vt 0.821408 0.386752
vt 0.314962 0.666069
vt 0.364097 0.704094
vt 0.314962 0.704092
vt 0.618041 0.780625
vt 0.656486 0.731491
vt 0.656486 0.780625
vt 0.618041 0.682356
vt 0.656486 0.633589
vt 0.656486 0.682356
vt 0.436714 0.670777
vt 0.485489 0.704098
vt 0.436714 0.708800
vt 0.618041 0.731491
vt 0.485489 0.666075
vt 0.534256 0.704100
vt 0.364097 0.666071
vt 0.413224 0.708800
vt 0.112266 0.772711
vt 0.120360 0.734250
vt 0.120360 0.772711
vt 0.618041 0.633589
vt 0.656486 0.584822
vt 0.771193 0.828960
vt 0.809635 0.793996
vt 0.217498 0.734225
vt 0.182534 0.734232
vt 0.046709 0.734251
vt 0.011744 0.734251
vt 0.081674 0.734250
vt 0.107893 0.734250
vt 0.156316 0.734236
vt 0.592967 0.820011
vt 0.592967 0.869146
vt 0.907014 0.181534
vt 0.907014 0.230301
vt 0.592967 0.770876
vt 0.534256 0.666077
vt 0.413224 0.670777
vt 0.907014 0.132767
vt 0.252462 0.734219
vt 0.666639 0.584822
vt 0.694931 0.633589
vt 0.120360 0.773034
vt 0.116639 0.782868
vt 0.694931 0.731491
vt 0.694931 0.682356
vt 0.436714 0.709120
vt 0.666639 0.780625
vt 0.314962 0.723146
vt 0.143849 0.773010
vt 0.147570 0.782840
vt 0.870025 0.316823
vt 0.719726 0.318497
vt 0.747698 0.584748
vt 0.696237 0.318491
vt 0.799169 0.584750
vt 0.747680 0.879676
vt 0.850663 0.706555
vt 0.696237 0.540767
vt 0.748028 0.552071
vt 0.879507 0.253794
vt 0.850630 0.766233
vt 0.747698 0.827333
vt 0.559563 0.293236
vt 0.273909 0.042217
vt 0.011744 0.354006
vt 0.583217 0.011744
vt 0.345756 0.334280
vt 0.583220 0.222331
vt 0.011782 0.562994
vt 0.955522 0.765203
vt 0.186569 0.011749
vt 0.941578 0.883295
vt 0.397085 0.846098
vt 0.314953 0.421620
vt 0.436713 0.905845
vt 0.462536 0.882356
vt 0.436713 0.770946
vt 0.531983 0.421620
vt 0.345756 0.578890
vt 0.261056 0.562874
vt 0.261019 0.353886
vt 0.029299 0.042207
vt 0.955588 0.584748
vt 0.046606 0.230434
vt 0.217498 0.657329
vt 0.413224 0.619934
vt 0.878968 0.683049
vt 0.011744 0.903872
vt 0.534256 0.624063
vt 0.541670 0.770876
vt 0.436714 0.619934
vt 0.855717 0.230301
vt 0.314962 0.624055
vt 0.143849 0.806329
vt 0.821407 0.445206
vt 0.081674 0.657329
vt 0.849388 0.898550
vt 0.888674 0.793686
vt 0.856972 0.109278
vt 0.620868 0.902384
vt 0.557744 0.718204
vt 0.274970 0.903883
vt 0.849369 0.793658
vt 0.821408 0.351788
vt 0.618041 0.584822
vt 0.771187 0.793996
s 0
usemtl マテリアル
f 33/1/1 4/2/1 34/3/1
f 4/4/2 35/5/2 34/6/2
f 8/7/3 36/8/3 35/9/3
f 6/10/4 33/11/4 36/12/4
f 1/13/5 40/14/5 5/15/5
f 4/16/6 6/17/6 8/18/6
f 12/19/7 21/20/7 24/21/7
f 11/22/3 24/23/3 23/24/3
f 10/25/8 23/26/8 22/27/8
f 21/28/1 10/29/1 22/30/1
f 20/31/1 13/32/1 17/33/1
f 13/34/9 18/35/9 17/36/9
f 14/37/3 19/38/3 18/39/3
f 15/40/10 20/41/10 19/42/10
f 19/43/11 1/13/11 5/15/11
f 18/39/3 5/44/3 7/45/3
f 17/36/12 7/46/12 3/47/12
f 1/48/1 17/33/1 3/49/1
f 16/50/1 22/30/1 13/32/1
f 22/27/13 14/51/13 13/34/13
f 23/24/3 15/52/3 14/37/3
f 24/21/14 16/53/14 15/40/14
f 28/54/15 32/55/15 31/56/15
f 30/57/3 28/58/3 31/59/3
f 26/60/16 30/61/16 29/62/16
f 25/63/1 29/64/1 32/65/1
f 32/65/1 10/29/1 9/66/1
f 29/62/17 11/67/17 10/25/17
f 11/22/3 31/59/3 12/68/3
f 31/56/18 9/69/18 12/19/18
f 28/54/19 33/11/19 25/70/19
f 35/9/3 28/58/3 27/71/3
f 34/6/20 27/72/20 26/60/20
f 25/63/1 34/3/1 26/73/1
f 40/74/3 43/75/3 39/76/3
f 7/46/21 37/77/21 3/47/21
f 3/49/1 38/78/1 1/48/1
f 5/44/3 39/76/3 7/45/3
f 43/79/22 42/80/22 41/81/22
f 38/78/1 41/82/1 42/83/1
f 38/84/5 44/85/5 40/14/5
f 39/86/21 41/87/21 37/77/21
f 240/261/1 162/262/1 226/263/1
f 232/264/28 166/265/28 227/266/28
f 238/267/3 164/268/3 228/269/3
f 176/270/74 225/271/74 234/272/74
f 198/273/75 172/274/75 194/275/75
f 196/276/76 160/277/76 176/278/76
f 191/279/77 174/280/77 193/281/77
f 192/282/78 178/283/78 195/284/78
f 174/285/24 229/286/24 231/287/24
f 177/288/28 230/289/28 233/290/28
f 228/291/79 174/285/79 231/287/79
f 193/281/80 164/292/80 190/293/80
f 192/294/78 172/274/78 169/295/78
f 230/296/28 171/297/28 232/264/28
f 162/298/28 233/290/28 226/299/28
f 189/300/81 178/283/81 159/301/81
f 191/302/82 176/278/82 170/303/82
f 229/304/24 176/270/24 234/272/24
f 208/305/6 183/306/6 203/307/6
f 207/308/83 179/309/83 201/310/83
f 206/311/42 184/312/42 204/313/42
f 205/314/6 182/315/6 202/316/6
f 204/313/42 187/317/42 207/318/42
f 205/314/84 183/319/84 185/320/84
f 208/305/85 180/321/85 188/322/85
f 200/323/86 186/324/86 206/325/86
f 202/326/3 235/327/3 239/328/3
f 197/329/1 236/330/1 237/331/1
f 160/332/1 237/331/1 225/333/1
f 183/334/6 196/335/6 191/336/6
f 187/337/83 189/338/83 179/309/83
f 186/339/42 192/340/42 184/312/42
f 182/341/6 193/342/6 190/343/6
f 184/312/42 195/344/42 187/317/42
f 183/345/87 193/342/87 185/346/87
f 180/347/88 196/335/88 188/348/88
f 181/349/86 194/350/86 186/324/86
f 235/327/3 190/351/3 238/267/3
f 166/352/3 239/328/3 227/353/3
f 165/354/86 206/325/86 173/355/86
f 162/356/89 208/357/89 177/358/89
f 171/359/89 203/360/89 205/361/89
f 175/362/42 204/313/42 207/318/42
f 166/363/89 205/361/89 202/364/89
f 173/365/42 204/313/42 167/366/42
f 161/367/83 207/308/83 201/310/83
f 177/358/89 203/368/89 168/369/89
f 180/370/1 240/261/1 236/330/1
f 220/371/1 255/372/1 251/373/1
f 211/374/3 254/375/3 242/376/3
f 250/377/3 222/378/3 253/379/3
f 209/380/1 252/381/1 256/382/1
f 221/383/1 251/373/1 252/384/1
f 223/385/3 250/377/3 254/375/3
f 213/386/24 249/387/24 244/388/24
f 210/389/28 248/390/28 241/391/28
f 214/392/28 247/393/28 245/394/28
f 212/395/79 246/396/79 243/397/79
f 217/398/28 245/394/28 248/390/28
f 215/399/24 244/400/24 246/396/24
f 218/401/74 256/402/74 249/387/74
f 253/403/3 212/404/3 243/405/3
f 216/406/28 242/407/28 247/393/28
f 224/408/1 241/409/1 255/372/1
f 236/330/1 224/410/1 220/411/1
f 227/353/3 223/412/3 211/413/3
f 219/414/3 238/267/3 222/415/3
f 225/333/1 221/416/1 209/380/1
f 237/331/1 220/411/1 221/416/1
f 239/328/3 219/414/3 223/412/3
f 229/304/24 218/401/24 213/386/24
f 226/299/28 217/417/28 210/418/28
f 230/296/28 216/419/28 214/420/28
f 228/291/79 215/399/79 212/395/79
f 233/290/28 214/421/28 217/417/28
f 231/287/24 213/422/24 215/399/24
f 234/272/74 209/423/74 218/401/74
f 222/415/3 228/269/3 212/404/3
f 232/264/28 211/424/28 216/419/28
f 240/261/1 210/425/1 224/410/1
f 255/372/1 161/367/1 201/310/1
f 247/393/28 165/426/28 173/427/28
f 253/403/3 163/428/3 198/429/3
f 249/387/74 159/301/74 178/283/74
f 172/274/24 244/400/24 169/295/24
f 175/430/28 245/394/28 167/431/28
f 163/432/79 246/396/79 172/274/79
f 245/394/28 173/427/28 167/431/28
f 161/433/28 248/390/28 175/430/28
f 244/388/24 178/283/24 169/434/24
f 254/375/3 181/349/3 200/323/3
f 252/384/1 179/309/1 189/338/1
f 159/435/1 252/381/1 189/436/1
f 181/349/3 253/379/3 198/437/3
f 242/376/3 200/323/3 165/354/3
f 251/373/1 201/310/1 179/309/1
f 33/1/1 2/438/1 4/2/1
f 4/4/2 8/439/2 35/5/2
f 8/7/3 6/440/3 36/8/3
f 6/10/4 2/441/4 33/11/4
f 1/13/5 38/84/5 40/14/5
f 4/16/6 2/442/6 6/17/6
f 12/19/7 9/69/7 21/20/7
f 11/22/3 12/68/3 24/23/3
f 10/25/8 11/67/8 23/26/8
f 21/28/1 9/66/1 10/29/1
f 20/31/1 16/50/1 13/32/1
f 13/34/9 14/51/9 18/35/9
f 14/37/3 15/52/3 19/38/3
f 15/40/10 16/53/10 20/41/10
f 19/43/11 20/443/11 1/13/11
f 18/39/3 19/38/3 5/44/3
f 17/36/12 18/35/12 7/46/12
f 1/48/1 20/31/1 17/33/1
f 16/50/1 21/28/1 22/30/1
f 22/27/13 23/26/13 14/51/13
f 23/24/3 24/23/3 15/52/3
f 24/21/14 21/20/14 16/53/14
f 28/54/15 25/70/15 32/55/15
f 30/57/3 27/71/3 28/58/3
f 26/60/16 27/72/16 30/61/16
f 25/63/1 26/73/1 29/64/1
f 32/65/1 29/64/1 10/29/1
f 29/62/17 30/61/17 11/67/17
f 11/22/3 30/57/3 31/59/3
f 31/56/18 32/55/18 9/69/18
f 28/54/19 36/12/19 33/11/19
f 35/9/3 36/8/3 28/58/3
f 34/6/20 35/5/20 27/72/20
f 25/63/1 33/1/1 34/3/1
f 40/74/3 44/444/3 43/75/3
f 7/46/21 39/86/21 37/77/21
f 3/49/1 37/445/1 38/78/1
f 5/44/3 40/74/3 39/76/3
f 43/79/22 44/446/22 42/80/22
f 38/78/1 37/445/1 41/82/1
f 38/84/5 42/447/5 44/85/5
f 39/86/21 43/448/21 41/87/21
f 240/261/1 199/471/1 162/262/1
f 232/264/28 171/297/28 166/265/28
f 238/267/3 190/351/3 164/268/3
f 176/270/74 160/472/74 225/271/74
f 198/273/112 163/432/112 172/274/112
f 196/276/113 197/473/113 160/277/113
f 191/279/82 170/474/82 174/280/82
f 192/282/78 169/434/78 178/283/78
f 174/285/24 170/475/24 229/286/24
f 177/288/28 168/476/28 230/289/28
f 228/291/79 164/477/79 174/285/79
f 193/281/114 174/280/114 164/292/114
f 192/294/78 194/275/78 172/274/78
f 230/296/28 168/478/28 171/297/28
f 162/298/28 177/288/28 233/290/28
f 189/300/115 195/284/115 178/283/115
f 191/302/116 196/276/116 176/278/116
f 229/304/24 170/479/24 176/270/24
f 208/305/117 188/322/117 183/306/117
f 207/308/83 187/337/83 179/309/83
f 206/311/42 186/339/42 184/312/42
f 205/314/118 185/320/118 182/315/118
f 204/313/42 184/312/42 187/317/42
f 205/314/6 203/480/6 183/319/6
f 208/305/6 199/481/6 180/321/6
f 200/323/86 181/349/86 186/324/86
f 202/326/3 182/482/3 235/327/3
f 197/329/1 180/370/1 236/330/1
f 160/332/1 197/329/1 237/331/1
f 183/334/119 188/348/119 196/335/119
f 187/337/83 195/483/83 189/338/83
f 186/339/42 194/484/42 192/340/42
f 182/341/120 185/346/120 193/342/120
f 184/312/42 192/340/42 195/344/42
f 183/345/6 191/485/6 193/342/6
f 180/347/6 197/486/6 196/335/6
f 181/349/86 198/437/86 194/350/86
f 235/327/3 182/482/3 190/351/3
f 166/352/3 202/326/3 239/328/3
f 165/354/86 200/323/86 206/325/86
f 162/356/89 199/487/89 208/357/89
f 171/359/89 168/488/89 203/360/89
f 175/362/42 167/366/42 204/313/42
f 166/363/89 171/359/89 205/361/89
f 173/365/42 206/311/42 204/313/42
f 161/367/83 175/489/83 207/308/83
f 177/358/89 208/357/89 203/368/89
f 180/370/1 199/471/1 240/261/1
f 220/371/1 224/408/1 255/372/1
f 211/374/3 223/385/3 254/375/3
f 250/377/3 219/490/3 222/378/3
f 209/380/1 221/416/1 252/381/1
f 221/383/1 220/371/1 251/373/1
f 223/385/3 219/490/3 250/377/3
f 213/386/24 218/401/24 249/387/24
f 210/389/28 217/398/28 248/390/28
f 214/392/28 216/406/28 247/393/28
f 212/395/79 215/399/79 246/396/79
f 217/398/28 214/392/28 245/394/28
f 215/399/24 213/422/24 244/400/24
f 218/401/74 209/423/74 256/402/74
f 253/403/3 222/415/3 212/404/3
f 216/406/28 211/491/28 242/407/28
f 224/408/1 210/492/1 241/409/1
f 236/330/1 240/261/1 224/410/1
f 227/353/3 239/328/3 223/412/3
f 219/414/3 235/327/3 238/267/3
f 225/333/1 237/331/1 221/416/1
f 237/331/1 236/330/1 220/411/1
f 239/328/3 235/327/3 219/414/3
f 229/304/24 234/272/24 218/401/24
f 226/299/28 233/290/28 217/417/28
f 230/296/28 232/264/28 216/419/28
f 228/291/79 231/287/79 215/399/79
f 233/290/28 230/289/28 214/421/28
f 231/287/24 229/286/24 213/422/24
f 234/272/74 225/271/74 209/423/74
f 222/415/3 238/267/3 228/269/3
f 232/264/28 227/266/28 211/424/28
f 240/261/1 226/263/1 210/425/1
f 255/372/1 241/409/1 161/367/1
f 247/393/28 242/407/28 165/426/28
f 253/403/3 243/405/3 163/428/3
f 249/387/121 256/402/121 159/301/121
f 172/274/24 246/396/24 244/400/24
f 175/430/28 248/390/28 245/394/28
f 163/432/122 243/397/122 246/396/122
f 245/394/28 247/393/28 173/427/28
f 161/433/28 241/391/28 248/390/28
f 244/388/24 249/387/24 178/283/24
f 254/375/3 250/377/3 181/349/3
f 252/384/1 251/373/1 179/309/1
f 159/435/1 256/382/1 252/381/1
f 181/349/3 250/377/3 253/379/3
f 242/376/3 254/375/3 200/323/3
f 251/373/1 255/372/1 201/310/1
usemtl Material
f 67/88/23 116/89/23 123/90/23
f 116/91/24 136/92/24 156/93/24
f 69/94/25 138/95/25 146/96/25
f 68/97/26 125/98/26 133/99/26
f 64/100/27 137/101/27 144/102/27
f 126/103/28 135/104/28 158/105/28
f 96/106/28 139/107/28 152/108/28
f 65/109/29 95/110/29 103/111/29
f 106/112/24 140/113/24 154/114/24
f 66/115/6 106/116/6 113/117/6
f 74/118/6 112/119/6 114/120/6
f 104/121/30 61/122/30 102/123/30
f 145/124/31 58/125/31 141/126/31
f 70/127/32 132/128/32 134/129/32
f 143/130/33 59/131/33 142/132/33
f 69/133/23 122/134/23 124/135/23
f 51/136/34 143/130/34 136/137/34
f 62/138/6 113/117/6 112/119/6
f 102/123/35 65/109/35 103/111/35
f 58/125/36 144/102/36 141/126/36
f 132/128/37 68/97/37 133/99/37
f 59/139/23 123/90/23 122/134/23
f 49/140/23 124/135/23 121/141/23
f 46/142/38 134/129/38 130/143/38
f 45/144/39 145/124/39 135/145/39
f 53/146/40 104/147/40 100/148/40
f 56/149/6 114/120/6 111/150/6
f 59/131/41 146/96/41 142/132/41
f 75/151/42 119/152/42 115/153/42
f 78/154/6 99/155/6 96/156/6
f 80/157/6 98/158/6 97/159/6
f 79/160/43 118/161/43 117/162/43
f 83/163/6 97/159/6 99/155/6
f 119/152/44 79/164/44 117/165/44
f 81/166/42 120/167/42 118/168/42
f 121/169/28 147/170/28 155/171/28
f 151/172/24 76/173/24 148/174/24
f 82/175/6 101/176/6 98/158/6
f 86/177/45 129/178/45 126/179/45
f 87/180/46 109/181/46 105/182/46
f 90/183/47 108/184/47 107/185/47
f 89/186/45 128/187/45 127/188/45
f 109/189/48 90/190/48 107/191/48
f 94/192/45 127/188/45 129/178/45
f 91/193/45 131/194/45 128/187/45
f 131/195/24 149/196/24 157/197/24
f 153/198/28 86/199/28 150/200/28
f 108/184/49 85/201/49 110/202/49
f 98/158/6 54/203/6 66/115/6
f 54/204/24 151/172/24 140/113/24
f 99/155/6 62/138/6 74/118/6
f 97/159/6 66/115/6 62/138/6
f 96/156/6 74/118/6 56/149/6
f 75/205/50 104/206/50 84/207/50
f 79/208/51 103/209/51 81/210/51
f 104/121/52 79/164/52 84/211/52
f 103/209/53 77/212/53 81/210/53
f 78/213/28 152/108/28 147/170/28
f 108/214/29 55/215/29 65/109/29
f 56/216/28 153/198/28 139/107/28
f 109/189/54 61/122/54 73/217/54
f 107/191/55 65/109/55 61/122/55
f 105/218/40 73/219/40 53/146/40
f 111/150/6 94/192/6 86/177/6
f 112/119/6 91/193/6 89/186/6
f 114/120/6 89/186/6 94/192/6
f 113/117/6 88/220/6 91/193/6
f 88/221/24 154/114/24 149/196/24
f 138/222/28 121/169/28 155/171/28
f 63/223/56 120/224/56 52/225/56
f 71/226/57 117/227/57 57/228/57
f 117/227/58 63/223/58 57/228/58
f 50/229/59 119/230/59 71/226/59
f 121/141/60 83/163/60 78/154/60
f 122/134/60 82/175/60 80/157/60
f 124/135/60 80/157/60 83/163/60
f 148/174/24 116/91/24 156/93/24
f 123/90/60 76/231/60 82/175/60
f 137/232/24 131/195/24 157/197/24
f 128/187/61 47/233/61 64/234/61
f 129/178/61 58/235/61 72/236/61
f 127/188/61 64/234/61 58/235/61
f 126/179/61 72/236/61 45/237/61
f 130/238/42 93/239/42 87/240/42
f 90/241/62 133/242/62 92/243/62
f 134/244/63 90/190/63 93/239/63
f 150/200/28 126/103/28 158/105/28
f 133/245/42 85/246/42 92/247/42
f 150/200/28 130/248/28 87/249/28
f 48/250/64 157/197/64 125/251/64
f 148/174/65 120/167/65 77/252/65
f 50/253/28 155/171/28 115/254/28
f 149/196/66 110/255/66 85/246/66
f 139/107/28 105/218/28 53/146/28
f 147/170/28 100/148/28 75/256/28
f 140/113/67 95/110/67 55/215/67
f 105/218/28 150/200/28 87/249/28
f 157/197/65 85/246/65 125/251/65
f 95/110/68 148/174/68 77/252/68
f 155/171/28 75/256/28 115/254/28
f 142/132/69 71/226/69 57/228/69
f 135/145/3 70/127/3 46/142/3
f 141/126/70 68/97/70 60/257/70
f 136/137/1 63/223/1 52/225/1
f 63/223/71 142/132/71 57/228/71
f 70/127/72 141/126/72 60/257/72
f 154/114/67 55/215/67 110/255/67
f 152/108/28 53/146/28 100/148/28
f 158/105/28 46/258/28 130/248/28
f 144/102/3 48/259/3 68/97/3
f 146/96/1 50/229/1 71/226/1
f 156/93/73 52/260/73 120/167/73
f 67/88/23 51/449/23 116/89/23
f 116/91/24 51/450/24 136/92/24
f 69/94/25 49/451/25 138/95/25
f 68/97/26 48/259/26 125/98/26
f 64/100/27 47/452/27 137/101/27
f 126/103/28 45/453/28 135/104/28
f 96/106/28 56/216/28 139/107/28
f 65/109/29 55/215/29 95/110/29
f 106/112/24 54/204/24 140/113/24
f 66/115/6 54/203/6 106/116/6
f 74/118/6 62/138/6 112/119/6
f 104/121/54 73/217/54 61/122/54
f 145/124/39 72/454/39 58/125/39
f 70/127/90 60/257/90 132/128/90
f 143/130/34 67/455/34 59/131/34
f 69/133/23 59/139/23 122/134/23
f 51/136/34 67/455/34 143/130/34
f 62/138/6 66/115/6 113/117/6
f 102/123/91 61/122/91 65/109/91
f 58/125/27 64/100/27 144/102/27
f 132/128/92 60/257/92 68/97/92
f 59/139/23 67/88/23 123/90/23
f 49/140/23 69/133/23 124/135/23
f 46/142/38 70/127/38 134/129/38
f 45/144/39 72/454/39 145/124/39
f 53/146/40 73/219/40 104/147/40
f 56/149/6 74/118/6 114/120/6
f 59/131/25 69/94/25 146/96/25
f 75/151/42 84/211/42 119/152/42
f 78/154/6 83/163/6 99/155/6
f 80/157/6 82/175/6 98/158/6
f 79/160/62 81/456/62 118/161/62
f 83/163/6 80/157/6 97/159/6
f 119/152/63 84/211/63 79/164/63
f 81/166/42 77/252/42 120/167/42
f 121/169/28 78/213/28 147/170/28
f 151/172/24 101/457/24 76/173/24
f 82/175/6 76/231/6 101/176/6
f 86/177/45 94/192/45 129/178/45
f 87/180/93 93/458/93 109/181/93
f 90/183/94 92/459/94 108/184/94
f 89/186/45 91/193/45 128/187/45
f 109/189/95 93/239/95 90/190/95
f 94/192/45 89/186/45 127/188/45
f 91/193/45 88/220/45 131/194/45
f 131/195/24 88/221/24 149/196/24
f 153/198/28 111/460/28 86/199/28
f 108/184/96 92/459/96 85/201/96
f 98/158/6 101/176/6 54/203/6
f 54/204/24 101/457/24 151/172/24
f 99/155/6 97/159/6 62/138/6
f 97/159/6 98/158/6 66/115/6
f 96/156/6 99/155/6 74/118/6
f 75/205/97 100/461/97 104/206/97
f 79/208/98 102/462/98 103/209/98
f 104/121/99 102/123/99 79/164/99
f 103/209/100 95/463/100 77/212/100
f 78/213/28 96/106/28 152/108/28
f 108/214/29 110/255/29 55/215/29
f 56/216/28 111/460/28 153/198/28
f 109/189/101 107/191/101 61/122/101
f 107/191/35 108/214/35 65/109/35
f 105/218/40 109/464/40 73/219/40
f 111/150/6 114/120/6 94/192/6
f 112/119/6 113/117/6 91/193/6
f 114/120/6 112/119/6 89/186/6
f 113/117/6 106/116/6 88/220/6
f 88/221/24 106/112/24 154/114/24
f 138/222/28 49/465/28 121/169/28
f 63/223/56 118/466/56 120/224/56
f 71/226/102 119/230/102 117/227/102
f 117/227/103 118/466/103 63/223/103
f 50/229/59 115/467/59 119/230/59
f 121/141/60 124/135/60 83/163/60
f 122/134/60 123/90/60 82/175/60
f 124/135/60 122/134/60 80/157/60
f 148/174/24 76/173/24 116/91/24
f 123/90/60 116/89/60 76/231/60
f 137/232/24 47/468/24 131/195/24
f 128/187/61 131/194/61 47/233/61
f 129/178/61 127/188/61 58/235/61
f 127/188/61 128/187/61 64/234/61
f 126/179/61 129/178/61 72/236/61
f 130/238/42 134/244/42 93/239/42
f 90/241/104 132/469/104 133/242/104
f 134/244/105 132/470/105 90/190/105
f 150/200/28 86/199/28 126/103/28
f 133/245/42 125/251/42 85/246/42
f 150/200/28 158/105/28 130/248/28
f 48/250/24 137/232/24 157/197/24
f 148/174/65 156/93/65 120/167/65
f 50/253/28 138/222/28 155/171/28
f 149/196/106 154/114/106 110/255/106
f 139/107/28 153/198/28 105/218/28
f 147/170/28 152/108/28 100/148/28
f 140/113/67 151/172/67 95/110/67
f 105/218/28 153/198/28 150/200/28
f 157/197/65 149/196/65 85/246/65
f 95/110/107 151/172/107 148/174/107
f 155/171/28 147/170/28 75/256/28
f 142/132/108 146/96/108 71/226/108
f 135/145/3 145/124/3 70/127/3
f 141/126/109 144/102/109 68/97/109
f 136/137/1 143/130/1 63/223/1
f 63/223/110 143/130/110 142/132/110
f 70/127/111 145/124/111 141/126/111
f 154/114/67 140/113/67 55/215/67
f 152/108/28 139/107/28 53/146/28
f 158/105/28 135/104/28 46/258/28
f 144/102/3 137/101/3 48/259/3
f 146/96/1 138/95/1 50/229/1
f 156/93/24 136/92/24 52/260/24
