# Blender 4.4.1
# www.blender.org
mtllib uma.mtl
o 立方体.001
v -0.045904 0.792459 1.096575
v -0.045904 0.893792 1.122966
v -0.140638 1.004247 0.569283
v -0.140638 1.186648 0.617917
v 0.045904 0.792459 1.096575
v 0.045904 0.893792 1.122966
v 0.140638 1.004247 0.569283
v 0.140638 1.186648 0.617917
v -0.100317 0.843280 0.811567
v -0.100317 1.095192 0.884758
v 0.100317 0.843280 0.811567
v 0.100317 1.095192 0.884758
v -0.062813 0.831075 0.961303
v 0.062813 1.002287 1.005892
v -0.062813 1.002287 1.005892
v 0.062813 0.831075 0.961303
v 0.000000 0.885044 0.539369
v 0.000000 1.186648 0.617917
v 0.000000 0.795630 1.097401
v 0.000000 0.890620 1.122140
v 0.000000 1.095192 0.884758
v 0.000000 0.814155 0.811567
v 0.000000 1.002287 1.005892
v 0.000000 0.831075 0.961303
v 0.070319 1.186648 0.617917
v 0.031407 0.795630 1.097401
v 0.050159 1.095192 0.884758
v 0.031407 1.002287 1.005892
v 0.070319 0.885044 0.539369
v 0.031407 0.890620 1.122140
v 0.050159 0.814155 0.811567
v 0.031407 0.831075 0.961303
v -0.070319 0.885044 0.539369
v -0.031407 0.890620 1.122140
v -0.050159 0.814155 0.811567
v -0.031407 0.831075 0.961303
v -0.070319 1.186648 0.617917
v -0.031407 0.795630 1.097401
v -0.050159 1.095192 0.884758
v -0.031407 1.002287 1.005892
v -0.105479 0.931204 0.539369
v -0.032273 0.890620 1.122140
v -0.075238 0.814155 0.811567
v -0.047110 0.831075 0.961303
v -0.105479 1.186648 0.617917
v -0.032273 0.795630 1.097401
v -0.075238 1.095192 0.884758
v -0.047110 1.002287 1.005892
v 0.105479 1.186648 0.617917
v 0.032273 0.795630 1.097401
v 0.075238 1.095192 0.884758
v 0.047110 1.002287 1.005892
v 0.105479 0.931204 0.539369
v 0.032273 0.890620 1.122140
v 0.075238 0.814155 0.811567
v 0.047110 0.831075 0.961303
v -0.120478 1.149224 0.705048
v 0.120478 0.878725 0.675468
v -0.120478 0.878725 0.675468
v 0.120478 1.149224 0.705048
v 0.000000 0.849599 0.675468
v 0.000000 1.140920 0.751337
v 0.060239 1.149224 0.705048
v 0.060239 0.849599 0.675468
v -0.060239 0.849599 0.675468
v -0.060239 1.149224 0.705048
v -0.090358 0.849599 0.675468
v -0.090358 1.159194 0.638558
v 0.090358 1.159194 0.638558
v 0.090358 0.849599 0.675468
v -0.130558 1.163784 0.684627
v 0.130558 0.910708 0.607419
v -0.130558 0.910708 0.607419
v 0.130558 1.163784 0.684627
v 0.000000 0.867322 0.607419
v 0.000000 1.163784 0.684627
v 0.065279 1.163784 0.684627
v 0.065279 0.867322 0.607419
v -0.065279 0.867322 0.607419
v -0.065279 1.163784 0.684627
v -0.097919 0.867322 0.607419
v -0.097919 1.361180 0.724677
v 0.097919 1.361180 0.724677
v 0.097919 0.867322 0.607419
v -0.045904 0.843125 1.109771
v -0.140638 1.095448 0.593600
v 0.140638 1.095448 0.593600
v 0.045904 0.843125 1.109771
v 0.100317 0.969236 0.848162
v -0.100317 0.969236 0.848162
v -0.062813 0.916681 0.983597
v 0.062813 0.916681 0.983597
v 0.000000 0.843125 1.109771
v 0.000000 1.035846 0.553329
v 0.031407 0.843125 1.109771
v 0.070319 1.035846 0.553329
v -0.070319 1.035846 0.553329
v -0.031407 0.843125 1.109771
v -0.105479 1.058926 0.573722
v -0.032273 0.843125 1.109771
v 0.032273 0.843125 1.109771
v 0.105479 1.058926 0.573722
v 0.120478 1.013974 0.690258
v -0.120478 1.013974 0.690258
v 0.130558 1.037246 0.646023
v -0.130558 1.037246 0.646023
v -0.045904 0.868459 1.116368
v -0.140638 1.141048 0.605758
v 0.140638 1.141048 0.605758
v 0.045904 0.868459 1.116368
v 0.100317 1.032214 0.866460
v -0.100317 1.032214 0.866460
v -0.062813 0.959484 0.994744
v 0.062813 0.959484 0.994744
v 0.000000 0.866873 1.115955
v 0.000000 1.111247 0.578939
v 0.031407 0.866873 1.115955
v 0.070319 1.111247 0.578939
v -0.070319 1.111247 0.578939
v -0.031407 0.866873 1.115955
v -0.105479 1.122787 0.598280
v -0.032273 0.866873 1.115955
v 0.032273 0.866873 1.115955
v 0.105479 1.122787 0.598280
v 0.120478 1.081599 0.697653
v -0.120478 1.081599 0.697653
v 0.130558 1.100515 0.665325
v -0.130558 1.100515 0.665325
v 0.233643 0.645120 -0.602736
v 0.274343 -0.108462 -0.575711
v 0.233643 0.645120 0.602736
v 0.275278 -0.108462 0.576646
v -0.233643 0.645120 -0.602736
v -0.274576 -0.108462 -0.575944
v -0.233643 0.645120 0.602736
v -0.274549 -0.108462 0.575917
v 0.000000 0.238325 -0.602736
v 0.000000 0.645120 0.650367
v 0.000000 0.238325 0.602736
v 0.000000 0.645120 -0.602736
v 0.176775 -0.108462 0.576646
v 0.150684 0.645120 -0.602736
v 0.177709 -0.108462 -0.575711
v 0.150684 0.645120 0.634164
v -0.177476 -0.108462 -0.575944
v -0.150684 0.645120 0.634164
v -0.177504 -0.108462 0.575917
v -0.150684 0.645120 -0.602736
v -0.301368 0.223151 0.000000
v 0.233643 0.645120 0.000000
v -0.233643 0.645120 0.000000
v 0.301368 0.223151 0.000000
v 0.000000 0.223151 0.000000
v 0.000000 0.645120 0.000000
v 0.150684 0.645120 0.000000
v 0.150684 0.223151 0.000000
v -0.150684 0.223151 0.000000
v -0.150684 0.645120 0.000000
v -0.301368 0.223151 0.406890
v 0.233643 0.645120 0.301368
v 0.000000 0.223151 0.301368
v 0.000000 0.645120 0.301368
v 0.150684 0.645120 0.301368
v 0.150684 0.223151 0.406890
v -0.150684 0.223151 0.406890
v -0.150684 0.645120 0.301368
v -0.233643 0.645120 0.301368
v 0.301368 0.223151 0.406890
v -0.233643 0.645120 -0.301368
v 0.301368 0.223151 -0.349114
v -0.301368 0.223151 -0.349114
v 0.233643 0.645120 -0.301368
v 0.000000 0.223151 -0.301368
v 0.000000 0.645120 -0.301368
v 0.150684 0.645120 -0.301368
v 0.150684 0.223151 -0.349114
v -0.150684 0.223151 -0.349114
v -0.150684 0.645120 -0.301368
v -0.274549 -0.108462 0.478872
v 0.233643 0.645120 0.452052
v 0.000000 0.238325 0.452052
v 0.000000 0.645120 0.452052
v 0.150684 0.645120 0.452052
v 0.176775 -0.108462 0.478143
v -0.177504 -0.108462 0.478872
v -0.150684 0.645120 0.452052
v -0.233643 0.645120 0.452052
v 0.275278 -0.108462 0.478143
v -0.233643 0.645120 -0.452052
v 0.274343 -0.108462 -0.479077
v -0.274576 -0.108462 -0.478844
v 0.233643 0.645120 -0.452052
v 0.000000 0.238325 -0.452052
v 0.000000 0.645120 -0.452052
v 0.150684 0.645120 -0.452052
v 0.177709 -0.108462 -0.479077
v -0.177476 -0.108462 -0.478844
v -0.150684 0.645120 -0.452052
v 0.075342 0.238325 -0.602736
v 0.075342 0.645120 0.650367
v 0.075342 0.238325 0.602736
v 0.075342 0.645120 -0.602736
v 0.075342 0.223151 0.000000
v 0.075342 0.645120 0.000000
v 0.075342 0.223151 0.301368
v 0.075342 0.645120 0.301368
v 0.075342 0.645120 -0.301368
v 0.075342 0.223151 -0.301368
v 0.075342 0.238325 0.452052
v 0.075342 0.645120 0.452052
v 0.075342 0.238325 -0.452052
v 0.075342 0.645120 -0.452052
v -0.075342 0.238325 0.602736
v -0.075342 0.645120 -0.602736
v -0.075342 0.238325 -0.602736
v -0.075342 0.645120 0.650367
v -0.075342 0.645120 0.000000
v -0.075342 0.223151 0.000000
v -0.075342 0.645120 0.301368
v -0.075342 0.223151 0.301368
v -0.075342 0.223151 -0.301368
v -0.075342 0.645120 -0.301368
v -0.075342 0.645120 0.452052
v -0.075342 0.238325 0.452052
v -0.075342 0.645120 -0.452052
v -0.075342 0.238325 -0.452052
v 0.327382 0.318603 -0.666959
v -0.301368 0.243282 0.602736
v 0.301368 0.243282 0.602736
v -0.327382 0.318603 -0.666959
v 0.000000 0.441715 -0.602736
v 0.000000 0.441715 0.650367
v 0.150684 0.243282 0.634164
v 0.150684 0.318603 -0.666959
v -0.150684 0.318603 -0.666959
v -0.150684 0.243282 0.634164
v 0.301368 0.434128 0.000000
v -0.301368 0.434128 0.000000
v -0.301368 0.434128 0.330390
v 0.301368 0.434128 0.330390
v 0.327382 0.434128 -0.301368
v -0.327382 0.434128 -0.301368
v -0.301368 0.243282 0.452052
v 0.301368 0.243282 0.452052
v 0.327382 0.243282 -0.452052
v -0.327382 0.243282 -0.452052
v 0.075342 0.441715 -0.602736
v 0.075342 0.441715 0.650367
v -0.075342 0.441715 0.650367
v -0.075342 0.441715 -0.602736
v -0.274549 -0.352423 0.478872
v -0.274549 -0.352423 0.575917
v -0.177476 -0.352423 -0.575944
v -0.274576 -0.352423 -0.575944
v 0.176775 -0.352423 0.576646
v 0.275278 -0.352423 0.576646
v 0.274343 -0.352423 -0.479077
v 0.274343 -0.352423 -0.575711
v 0.177709 -0.352423 -0.575711
v 0.176775 -0.352423 0.478143
v -0.177504 -0.352423 0.575917
v -0.177504 -0.352423 0.478872
v 0.275278 -0.352423 0.478143
v -0.274576 -0.352423 -0.478844
v 0.177709 -0.352423 -0.479077
v -0.177476 -0.352423 -0.478844
v -0.092420 0.890727 0.818659
v -0.092420 1.007312 0.626195
v -0.092420 0.368323 0.502215
v -0.092420 0.484908 0.309750
v 0.092420 0.890727 0.818659
v 0.092420 1.007312 0.626195
v 0.092420 0.368323 0.502215
v 0.092420 0.484908 0.309750
v -0.064292 0.006797 -0.740372
v -0.064292 0.588308 -0.466164
v -0.064292 0.058211 -0.849405
v -0.064292 0.639722 -0.575197
v 0.064292 0.006797 -0.740372
v 0.064292 0.588308 -0.466164
v 0.064292 0.058211 -0.849405
v 0.064292 0.639722 -0.575197
vn -0.9894 -0.0423 0.1387
vn 0.0506 0.2935 -0.9546
vn 0.9928 -0.0301 0.1155
vn -0.0000 -0.2520 0.9677
vn -0.2337 -0.9344 -0.2688
vn 0.2074 0.7186 0.6638
vn 0.2033 0.9506 0.2346
vn 0.7550 -0.6501 -0.0854
vn 0.9935 -0.0318 0.1094
vn -0.9671 -0.0642 0.2463
vn -0.9928 -0.0301 0.1155
vn -0.0000 0.7935 0.6086
vn -0.0000 -0.9937 0.1123
vn 0.9671 -0.0642 0.2463
vn -0.0000 -0.9677 -0.2520
vn 0.0927 0.9521 0.2915
vn -0.0000 0.7212 0.6928
vn -0.0000 0.4592 -0.8883
vn 0.2613 0.9302 0.2579
vn -0.3201 0.4350 -0.8416
vn -0.0000 0.9460 0.3242
vn -0.7508 -0.6465 0.1354
vn -0.6927 -0.7163 -0.0839
vn -0.0000 -0.9616 -0.2745
vn -0.0506 0.2935 -0.9546
vn -0.0000 0.9577 0.2879
vn -0.0000 0.7335 0.6797
vn 0.3201 0.4350 -0.8416
vn -0.4809 0.8085 0.3391
vn -0.8476 0.3104 0.4305
vn -0.7886 -0.5932 -0.1620
vn -0.1179 0.9394 0.3220
vn 0.8431 -0.2373 0.4826
vn -0.0000 0.8142 0.5806
vn 0.9592 -0.0307 0.2811
vn 0.6910 -0.7146 -0.1093
vn 0.7169 -0.2505 0.6506
vn -0.9935 -0.0318 0.1094
vn -0.9365 0.2116 -0.2796
vn 0.7217 -0.5429 -0.4295
vn 0.9894 -0.0423 0.1387
vn -0.8662 0.2329 -0.4421
vn -0.7170 -0.5462 -0.4331
vn -0.8786 -0.2584 -0.4016
vn -0.9592 -0.0307 0.2811
vn -0.9901 -0.0153 0.1395
vn 0.9877 -0.0456 0.1493
vn -0.9899 -0.0396 0.1363
vn 0.9901 -0.0153 0.1395
vn -0.1201 0.0915 -0.9885
vn -0.2714 0.2500 -0.9294
vn 0.1201 0.0915 -0.9885
vn -0.0000 0.0922 -0.9957
vn 0.9690 -0.0689 0.2371
vn -0.9690 -0.0689 0.2371
vn 0.9899 -0.0396 0.1363
vn 0.2714 0.2500 -0.9294
vn -0.9877 -0.0456 0.1493
vn -0.9773 -0.0230 0.2106
vn 0.9889 -0.0433 0.1420
vn -0.9925 -0.0340 0.1171
vn 0.9773 -0.0230 0.2106
vn 0.3203 0.3047 -0.8970
vn -0.1530 0.3547 -0.9224
vn -0.3203 0.3047 -0.8970
vn -0.0000 0.3216 -0.9469
vn 0.9678 -0.0634 0.2434
vn -0.9678 -0.0634 0.2434
vn 0.9925 -0.0340 0.1171
vn 0.1530 0.3547 -0.9224
vn -0.9889 -0.0433 0.1420
vn -0.0000 1.0000 -0.0000
vn -0.2041 0.0344 0.9784
vn -0.9708 0.2265 0.0794
vn -1.0000 -0.0000 -0.0000
vn 0.9861 0.1662 -0.0000
vn -0.0000 0.1930 -0.9812
vn -0.0000 -0.0000 -1.0000
vn -0.0000 -1.0000 -0.0000
vn -0.0000 -0.0000 1.0000
vn 0.2041 0.0344 0.9784
vn -0.4621 0.1712 -0.8702
vn -0.9598 -0.2807 -0.0000
vn -0.2103 -0.0000 0.9776
vn 0.9110 0.4048 0.0786
vn -0.9522 0.3056 -0.0000
vn -0.9542 0.1608 0.2523
vn 0.9522 0.3056 -0.0000
vn -0.0000 -0.3649 0.9311
vn 0.9359 0.2183 -0.2765
vn -0.0000 -0.9950 -0.1002
vn -0.0634 -0.9930 -0.1000
vn -0.0000 -0.3643 0.9313
vn -0.9110 0.4048 0.0786
vn -0.9861 0.1662 -0.0000
vn -0.0000 -0.2121 -0.9772
vn -0.1390 -0.9853 0.0992
vn -0.0000 -0.9950 0.1002
vn 0.9542 0.1608 0.2523
vn -0.0000 -0.2101 -0.9777
vn -0.9591 -0.2831 -0.0000
vn 0.9708 0.2265 0.0794
vn 1.0000 -0.0000 -0.0000
vn -0.9359 0.2183 -0.2765
vn 0.2103 -0.0000 0.9776
vn 0.9593 -0.2825 -0.0000
vn 0.5338 -0.2204 -0.8164
vn 0.7946 -0.2758 0.5409
vn 0.9592 -0.2826 -0.0000
vn 0.4621 0.1712 -0.8702
vn 0.4943 -0.2107 -0.8433
vn -0.0000 -0.2280 0.9737
vn -0.3690 -0.1766 0.9125
vn -0.9639 -0.1609 0.2121
vn 0.9888 -0.1491 -0.0000
vn 0.9969 -0.0716 0.0319
vn -0.9971 -0.0760 -0.0000
vn -0.9925 -0.1224 -0.0000
vn 0.9638 -0.1616 0.2120
vn -0.9968 -0.0735 0.0328
vn 0.9925 -0.1224 -0.0000
vn 0.3687 -0.1792 0.9121
vn -0.0000 -0.2084 -0.9780
vn -0.4937 -0.2115 -0.8435
vn -0.0000 -0.0740 0.9973
vn -0.0000 -0.2089 -0.9779
vn 0.9973 -0.0740 -0.0000
vn -0.9889 -0.1485 -0.0000
vn -0.0000 -0.0760 0.9971
vn -0.0000 -0.8553 -0.5181
vn -0.0000 0.8553 0.5181
vn -0.0000 -0.5181 0.8553
vn -0.0000 0.5181 -0.8553
vn -0.0000 0.4265 -0.9045
vn -0.0000 -0.4265 0.9045
vn -0.0000 -0.9045 -0.4265
vn -0.0000 0.9045 0.4265
vn -0.9899 -0.0365 0.1371
vn -0.0000 0.2576 -0.9662
vn 0.6927 -0.7163 -0.0839
vn 0.9941 -0.0118 0.1080
vn -0.9670 -0.0711 0.2448
vn 0.7508 -0.6465 0.1354
vn 0.9670 -0.0711 0.2448
vn -0.0000 0.2939 -0.9558
vn -0.0927 0.9521 0.2915
vn -0.7550 -0.6501 -0.0854
vn 0.2337 -0.9344 -0.2688
vn -0.2613 0.9302 0.2579
vn -0.2033 0.9506 0.2346
vn -0.2074 0.7186 0.6638
vn -0.7169 -0.2505 0.6506
vn -0.8431 -0.2373 0.4826
vn -0.6910 -0.7146 -0.1093
vn 0.8476 0.3104 0.4305
vn 0.1179 0.9394 0.3220
vn 0.9207 -0.1139 0.3733
vn 0.7886 -0.5932 -0.1620
vn 0.4809 0.8085 0.3391
vn -0.9941 -0.0118 0.1080
vn 0.8786 -0.2584 -0.4016
vn 0.9899 -0.0365 0.1371
vn -0.7217 -0.5429 -0.4295
vn 0.8662 0.2329 -0.4421
vn 0.9365 0.2116 -0.2796
vn 0.7170 -0.5462 -0.4331
vn -0.9207 -0.1139 0.3733
vn -0.9796 -0.0587 0.1924
vn 0.9884 -0.0391 0.1466
vn -0.9923 -0.0134 0.1229
vn 0.9796 -0.0587 0.1924
vn 0.3630 0.2420 -0.8998
vn -0.2684 0.2482 -0.9308
vn -0.3630 0.2420 -0.8998
vn 0.9923 -0.0134 0.1229
vn 0.2684 0.2482 -0.9308
vn -0.9884 -0.0391 0.1466
vn -0.9638 -0.0778 0.2550
vn 0.9892 -0.0378 0.1417
vn -0.9933 -0.0126 0.1150
vn 0.9638 -0.0778 0.2550
vn 0.3679 0.3338 -0.8679
vn -0.0715 0.2570 -0.9638
vn -0.3679 0.3338 -0.8679
vn 0.9675 -0.0706 0.2428
vn -0.9675 -0.0706 0.2428
vn 0.9933 -0.0126 0.1150
vn 0.0715 0.2570 -0.9638
vn -0.9892 -0.0378 0.1417
vn -0.3543 -0.0000 0.9351
vn -0.9612 0.2759 -0.0000
vn 0.3543 -0.0000 0.9351
vn 0.9139 0.4060 -0.0000
vn -0.7944 -0.2766 0.5407
vn -0.5337 -0.2176 -0.8172
vn 0.9612 0.2759 -0.0000
vn -0.9139 0.4060 -0.0000
vn 0.1390 -0.9853 0.0992
vn 0.0634 -0.9930 -0.1000
vn 0.6487 -0.0000 -0.7610
vn -0.3643 -0.2124 0.9068
vn -0.9632 -0.1665 0.2109
vn 0.9900 -0.1329 -0.0466
vn -0.9963 -0.0000 0.0860
vn 0.9632 -0.1665 0.2109
vn 0.9963 -0.0000 0.0860
vn 0.3643 -0.2124 0.9068
vn -0.6487 -0.0000 -0.7610
vn 0.2021 -0.1434 0.9688
vn -0.9901 -0.1323 -0.0464
vn -0.2020 -0.1450 0.9686
vt 0.368256 0.429061
vt 0.389295 0.419412
vt 0.383893 0.438994
vt 0.846593 0.503497
vt 0.856445 0.516543
vt 0.846593 0.521837
vt 0.425556 0.744387
vt 0.441032 0.781903
vt 0.435011 0.786087
vt 0.958808 0.863217
vt 0.962627 0.869623
vt 0.958808 0.870081
vt 0.167066 0.800340
vt 0.173921 0.838533
vt 0.170193 0.839379
vt 0.635954 0.932770
vt 0.635616 0.971124
vt 0.631796 0.971080
vt 0.656512 0.841808
vt 0.643835 0.894201
vt 0.648072 0.823000
vt 0.337366 0.709264
vt 0.364868 0.735296
vt 0.360000 0.741766
vt 0.383873 0.663653
vt 0.426354 0.695080
vt 0.410983 0.705134
vt 0.328460 0.522684
vt 0.353207 0.490499
vt 0.338634 0.529752
vt 0.323157 0.567269
vt 0.329179 0.571452
vt 0.640354 0.932770
vt 0.167167 0.758327
vt 0.171390 0.799525
vt 0.435730 0.737319
vt 0.861172 0.091883
vt 0.852372 0.133150
vt 0.847117 0.091883
vt 0.774042 0.894201
vt 0.765242 0.932770
vt 0.759987 0.894201
vt 0.861172 0.052940
vt 0.844293 0.052940
vt 0.774042 0.854980
vt 0.757163 0.841808
vt 0.774042 0.932770
vt 0.765242 0.971080
vt 0.861172 0.133150
vt 0.852372 0.172092
vt 0.953827 0.917898
vt 0.962627 0.924761
vt 0.953827 0.924761
vt 0.851320 0.197483
vt 0.871024 0.219562
vt 0.851320 0.219562
vt 0.953584 0.917897
vt 0.953584 0.924761
vt 0.764999 0.971080
vt 0.760842 0.932770
vt 0.752960 0.894201
vt 0.748723 0.823000
vt 0.869973 0.133150
vt 0.875227 0.091883
vt 0.861172 0.172092
vt 0.817037 0.503497
vt 0.836741 0.525576
vt 0.817037 0.525576
vt 0.841468 0.215824
vt 0.852129 0.172092
vt 0.847972 0.133150
vt 0.840090 0.091883
vt 0.835853 0.052940
vt 0.622753 0.894201
vt 0.631553 0.932770
vt 0.622753 0.932770
vt 0.622753 0.854980
vt 0.636808 0.894201
vt 0.622753 0.971080
vt 0.949765 0.863217
vt 0.958565 0.870081
vt 0.949765 0.870081
vt 0.173819 0.866879
vt 0.169597 0.908077
vt 0.167065 0.864770
vt 0.426824 0.494629
vt 0.399322 0.520661
vt 0.422046 0.488103
vt 0.173921 0.908892
vt 0.167065 0.947085
vt 0.831616 0.210529
vt 0.841468 0.197483
vt 0.639633 0.841808
vt 0.631553 0.971080
vt 0.958565 0.863217
vt 0.756441 0.932770
vt 0.745932 0.894201
vt 0.740283 0.841808
vt 0.761180 0.971124
vt 0.949765 0.924303
vt 0.874373 0.133150
vt 0.878052 0.052940
vt 0.882255 0.091883
vt 0.870215 0.172092
vt 0.869973 0.172092
vt 0.836741 0.503497
vt 0.879464 0.033469
vt 0.886492 0.052940
vt 0.701514 0.871880
vt 0.714892 0.875188
vt 0.695495 0.875188
vt 0.406457 0.879879
vt 0.419703 0.882291
vt 0.400342 0.883475
vt 0.438141 0.478378
vt 0.430805 0.468792
vt 0.622753 0.835369
vt 0.842880 0.033469
vt 0.833734 0.033469
vt 0.861172 0.033469
vt 0.909489 0.280503
vt 0.896416 0.283719
vt 0.912182 0.224382
vt 0.774042 0.835369
vt 0.755750 0.835369
vt 0.380297 0.653629
vt 0.397783 0.650624
vt 0.326049 0.693013
vt 0.342144 0.702738
vt 0.286528 0.830797
vt 0.274478 0.837483
vt 0.274478 0.775919
vt 0.337836 0.480445
vt 0.380317 0.449018
vt 0.377767 0.412323
vt 0.323157 0.394758
vt 0.323157 0.666949
vt 0.333385 0.683428
vt 0.374895 0.634047
vt 0.395934 0.643696
vt 0.861172 0.013998
vt 0.841468 0.013998
vt 0.774042 0.815759
vt 0.754338 0.815759
vt 0.714239 0.956464
vt 0.695269 0.956811
vt 0.702235 0.900579
vt 0.831616 0.012696
vt 0.622753 0.815759
vt 0.641045 0.835369
vt 0.441032 0.452314
vt 0.421992 0.441847
vt 0.275038 0.920030
vt 0.293622 0.916204
vt 0.274478 0.920513
vt 0.386423 0.626958
vt 0.385794 0.626568
vt 0.880876 0.013998
vt 0.888610 0.033469
vt 0.366407 0.435989
vt 0.394226 0.462046
vt 0.342198 0.656482
vt 0.364660 0.663562
vt 0.368579 0.500553
vt 0.369963 0.676681
vt 0.836741 0.547296
vt 0.846593 0.576858
vt 0.836741 0.589732
vt 0.949765 0.931625
vt 0.953584 0.945353
vt 0.949765 0.946270
vt 0.958565 0.876945
vt 0.958808 0.890673
vt 0.958565 0.890673
vt 0.831616 0.249666
vt 0.841468 0.234296
vt 0.841468 0.270844
vt 0.949765 0.876945
vt 0.949765 0.890673
vt 0.851320 0.241282
vt 0.851320 0.283719
vt 0.817037 0.547296
vt 0.817037 0.589732
vt 0.953584 0.931625
vt 0.953827 0.945353
vt 0.871024 0.283719
vt 0.953827 0.931625
vt 0.962627 0.945353
vt 0.395611 0.715188
vt 0.395033 0.765591
vt 0.335201 0.575635
vt 0.369157 0.550956
vt 0.347244 0.584002
vt 0.962627 0.876945
vt 0.962627 0.891590
vt 0.428989 0.790270
vt 0.416946 0.798636
vt 0.846593 0.540310
vt 0.856445 0.555680
vt 0.399530 0.448927
vt 0.363996 0.641525
vt 0.958808 0.876945
vt 0.831616 0.223575
vt 0.871024 0.241282
vt 0.962627 0.931625
vt 0.415382 0.751455
vt 0.348808 0.536820
vt 0.856445 0.529588
vt 0.400194 0.426890
vt 0.574116 0.684009
vt 0.597362 0.725331
vt 0.574116 0.733949
vt 0.749422 0.426936
vt 0.772635 0.318168
vt 0.791646 0.428629
vt 0.317726 0.074619
vt 0.409518 0.012696
vt 0.430622 0.072767
vt 0.893441 0.716084
vt 0.920908 0.784440
vt 0.893382 0.784440
vt 0.179522 0.325949
vt 0.292334 0.369366
vt 0.179522 0.368056
vt 0.756712 0.105494
vt 0.779958 0.012696
vt 0.806225 0.105494
vt 0.693377 0.012696
vt 0.714489 0.069428
vt 0.693377 0.069428
vt 0.097142 0.688818
vt 0.076030 0.730827
vt 0.076030 0.688818
vt 0.686053 0.315610
vt 0.707182 0.371520
vt 0.686070 0.371526
vt 0.531893 0.684009
vt 0.510781 0.738393
vt 0.510781 0.684009
vt 0.489670 0.684009
vt 0.466424 0.725331
vt 0.466424 0.684009
vt 0.641696 0.318209
vt 0.664975 0.426962
vt 0.622753 0.428681
vt 0.735601 0.069428
vt 0.756712 0.012696
vt 0.930450 0.619247
vt 0.888343 0.619247
vt 0.281434 0.682172
vt 0.254371 0.750528
vt 0.254430 0.682172
vt 0.649020 0.012696
vt 0.672266 0.105494
vt 0.622753 0.105494
vt 0.728293 0.371513
vt 0.749388 0.316470
vt 0.553004 0.684009
vt 0.553004 0.738393
vt 0.574116 0.477401
vt 0.553004 0.560044
vt 0.553004 0.477401
vt 0.054919 0.465892
vt 0.012696 0.563220
vt 0.012696 0.465892
vt 0.118254 0.479203
vt 0.139365 0.563220
vt 0.118254 0.563220
vt 0.489670 0.477401
vt 0.466424 0.560044
vt 0.466424 0.477401
vt 0.531893 0.477401
vt 0.510781 0.560044
vt 0.510781 0.477401
vt 0.097142 0.479203
vt 0.076030 0.563220
vt 0.076030 0.479203
vt 0.292334 0.116725
vt 0.232995 0.199582
vt 0.232911 0.114828
vt 0.181589 0.465892
vt 0.139365 0.465892
vt 0.317726 0.285153
vt 0.377064 0.199582
vt 0.377064 0.291906
vt 0.597362 0.477401
vt 0.574116 0.560044
vt 0.317726 0.327260
vt 0.430538 0.325949
vt 0.553004 0.642688
vt 0.054919 0.563220
vt 0.012696 0.676656
vt 0.118254 0.647238
vt 0.489670 0.560044
vt 0.466424 0.642688
vt 0.531893 0.560044
vt 0.510781 0.642688
vt 0.097142 0.563220
vt 0.076030 0.647238
vt 0.292334 0.285153
vt 0.232995 0.291906
vt 0.181589 0.563220
vt 0.139365 0.676656
vt 0.597362 0.642688
vt 0.574116 0.642688
vt 0.597362 0.436079
vt 0.574116 0.436079
vt 0.501075 0.862000
vt 0.466424 0.763784
vt 0.508647 0.763784
vt 0.292334 0.074618
vt 0.179437 0.072767
vt 0.097142 0.436766
vt 0.076030 0.436766
vt 0.531893 0.436079
vt 0.510781 0.436079
vt 0.489670 0.436079
vt 0.466424 0.436079
vt 0.249090 0.585338
vt 0.218755 0.589345
vt 0.206980 0.589590
vt 0.541546 0.861987
vt 0.576261 0.763784
vt 0.568754 0.861987
vt 0.553004 0.436079
vt 0.317726 0.116725
vt 0.377149 0.114828
vt 0.317726 0.369367
vt 0.430538 0.368056
vt 0.859213 0.320039
vt 0.820258 0.408850
vt 0.817037 0.318040
vt 0.820773 0.623717
vt 0.799433 0.619247
vt 0.799815 0.627525
vt 0.489670 0.642688
vt 0.531893 0.642688
vt 0.097142 0.647238
vt 0.292334 0.327260
vt 0.862952 0.621773
vt 0.832247 0.713860
vt 0.597362 0.684009
vt 0.574116 0.394758
vt 0.553004 0.394758
vt 0.847420 0.410137
vt 0.817037 0.476819
vt 0.291197 0.585338
vt 0.489670 0.394758
vt 0.466424 0.394758
vt 0.531893 0.394758
vt 0.510781 0.394758
vt 0.097142 0.394758
vt 0.076030 0.394758
vt 0.200541 0.012696
vt 0.081054 0.066403
vt 0.012699 0.039458
vt 0.081054 0.039399
vt 0.597362 0.394758
vt 0.118254 0.394758
vt 0.118254 0.436766
vt 0.118254 0.688818
vt 0.097142 0.730827
vt 0.714489 0.012696
vt 0.489670 0.733949
vt 0.664942 0.316496
vt 0.216673 0.491591
vt 0.249087 0.394758
vt 0.243806 0.491591
vt 0.880559 0.315597
vt 0.279421 0.398764
vt 0.054919 0.676656
vt 0.531893 0.738393
vt 0.707164 0.315603
vt 0.206980 0.775919
vt 0.243799 0.872753
vt 0.216681 0.872753
vt 0.672266 0.012696
vt 0.693377 0.126157
vt 0.664758 0.222161
vt 0.728311 0.430011
vt 0.707200 0.430018
vt 0.686088 0.430024
vt 0.657696 0.526782
vt 0.735601 0.126157
vt 0.714489 0.126157
vt 0.436178 0.102077
vt 0.529006 0.066463
vt 0.173881 0.313334
vt 0.081051 0.333867
vt 0.529006 0.361204
vt 0.529006 0.334086
vt 0.436178 0.199633
vt 0.173881 0.102077
vt 0.173881 0.199633
vt 0.436178 0.313334
vt 0.756968 0.526791
vt 0.637550 0.222161
vt 0.764285 0.222155
vt 0.630094 0.526791
vt 0.791363 0.222155
vt 0.081051 0.361393
vt 0.529006 0.039329
vt 0.784161 0.526782
vt 0.089881 0.935829
vt 0.117342 0.963431
vt 0.089881 0.963431
vt 0.012696 0.942397
vt 0.039750 0.969590
vt 0.012696 0.969590
vt 0.941203 0.224382
vt 0.968273 0.251591
vt 0.941203 0.251591
vt 0.949765 0.809831
vt 0.976705 0.836909
vt 0.949765 0.836909
vt 0.243865 0.559947
vt 0.216732 0.559947
vt 0.597362 0.066522
vt 0.473996 0.929065
vt 0.473997 0.862000
vt 0.764285 0.290199
vt 0.597362 0.334145
vt 0.597362 0.361263
vt 0.756989 0.593856
vt 0.630115 0.593856
vt 0.637550 0.290206
vt 0.541545 0.929053
vt 0.012696 0.333926
vt 0.216740 0.941109
vt 0.859819 0.712589
vt 0.835380 0.781832
vt 0.711093 0.619423
vt 0.774042 0.790192
vt 0.711093 0.790367
vt 0.881837 0.532787
vt 0.933630 0.589732
vt 0.881837 0.589732
vt 0.622753 0.790192
vt 0.685702 0.619423
vt 0.685702 0.790367
vt 0.323157 0.824027
vt 0.374951 0.883521
vt 0.323157 0.883521
vt 0.012696 0.917005
vt 0.064489 0.756219
vt 0.064489 0.917006
vt 0.089881 0.910438
vt 0.141674 0.756218
vt 0.141674 0.910438
vt 0.799433 0.987304
vt 0.833146 0.807223
vt 0.833146 0.987216
vt 0.888343 0.809831
vt 0.924374 0.979400
vt 0.888343 0.979400
vt 0.916120 0.012696
vt 0.949833 0.192777
vt 0.916120 0.192688
vt 0.905950 0.315597
vt 0.941980 0.490340
vt 0.905950 0.490340
vt 0.323157 0.908913
vt 0.355005 0.944943
vt 0.323157 0.944943
vt 0.400342 0.908867
vt 0.433204 0.944897
vt 0.400342 0.944897
vt 0.378396 0.411933
vt 0.856445 0.503497
vt 0.962627 0.862300
vt 0.650863 0.894201
vt 0.173921 0.756218
vt 0.774042 0.971080
vt 0.962627 0.917898
vt 0.871024 0.197483
vt 0.404189 0.527131
vt 0.170793 0.947931
vt 0.831616 0.197483
vt 0.949765 0.916981
vt 0.698821 0.815759
vt 0.400342 0.824028
vt 0.915812 0.283719
vt 0.293201 0.832420
vt 0.714892 0.956811
vt 0.642457 0.815759
vt 0.274478 0.862874
vt 0.441032 0.609393
vt 0.890729 0.012696
vt 0.317726 0.032512
vt 0.920967 0.716084
vt 0.735601 0.012696
vt 0.281375 0.750528
vt 0.728276 0.315597
vt 0.292334 0.200939
vt 0.317726 0.200939
vt 0.597362 0.560044
vt 0.181589 0.676656
vt 0.534038 0.763784
vt 0.844200 0.478106
vt 0.292334 0.032511
vt 0.012699 0.066462
vt 0.118254 0.730827
vt 0.206980 0.394758
vt 0.880167 0.323873
vt 0.291197 0.399009
vt 0.249087 0.775919
vt 0.117342 0.935829
vt 0.039750 0.942397
vt 0.968273 0.224382
vt 0.976705 0.809831
vt 0.597362 0.039388
vt 0.501074 0.929065
vt 0.791363 0.290199
vt 0.784182 0.593848
vt 0.657716 0.593848
vt 0.664758 0.290206
vt 0.568754 0.929053
vt 0.012696 0.361452
vt 0.243858 0.941109
vt 0.862952 0.780561
vt 0.774042 0.619247
vt 0.933630 0.532787
vt 0.622753 0.619247
vt 0.374951 0.824027
vt 0.012696 0.756218
vt 0.089881 0.756218
vt 0.799433 0.807312
vt 0.924374 0.809831
vt 0.949833 0.012784
vt 0.941980 0.315597
vt 0.355005 0.908913
vt 0.433204 0.908867
s 0
usemtl マテリアル
f 71/1/1 108/2/1 128/3/1
f 49/4/2 109/5/2 124/6/2
f 114/7/3 6/8/3 110/9/3
f 42/10/4 107/11/4 122/12/4
f 56/13/5 5/14/5 50/15/5
f 48/16/6 2/17/6 42/18/6
f 57/19/7 47/20/7 68/21/7
f 70/22/8 11/23/8 55/24/8
f 125/25/9 12/26/9 111/27/9
f 15/28/10 112/29/10 113/30/10
f 2/31/11 113/30/11 107/32/11
f 47/20/12 15/33/12 48/16/12
f 55/34/13 16/35/13 56/13/13
f 111/27/14 14/36/14 114/7/14
f 22/37/13 36/38/13 35/39/13
f 21/40/12 28/41/12 27/42/12
f 61/43/15 35/39/15 65/44/15
f 62/45/16 27/42/16 63/46/16
f 23/47/17 30/48/17 28/41/17
f 24/49/15 38/50/15 36/38/15
f 30/51/4 115/52/4 117/53/4
f 37/54/18 116/55/18 119/56/18
f 54/57/4 117/53/4 123/58/4
f 28/41/17 54/59/17 52/60/17
f 63/46/19 51/61/19 69/62/19
f 27/42/12 52/60/12 51/61/12
f 22/37/13 32/63/13 24/49/13
f 61/43/15 31/64/15 22/37/15
f 32/63/15 19/65/15 24/49/15
f 18/66/18 118/67/18 116/68/18
f 121/69/20 37/54/20 119/56/20
f 36/38/15 46/70/15 44/71/15
f 65/44/15 43/72/15 67/73/15
f 35/39/13 44/71/13 43/72/13
f 21/74/12 40/75/12 23/76/12
f 62/77/21 39/78/21 21/74/21
f 40/75/17 20/79/17 23/76/17
f 20/80/4 120/81/4 115/82/4
f 43/83/22 13/84/22 9/85/22
f 67/86/23 9/87/23 59/88/23
f 44/89/24 1/90/24 13/84/24
f 108/91/25 45/92/25 121/69/25
f 39/78/12 48/16/12 40/75/12
f 66/93/26 47/20/26 39/78/26
f 40/75/17 42/18/17 34/94/17
f 34/95/4 122/12/4 120/81/4
f 51/61/12 14/96/12 12/97/12
f 60/98/26 51/61/26 12/97/26
f 52/60/27 6/99/27 14/96/27
f 110/100/4 54/57/4 123/58/4
f 31/64/13 56/101/13 32/63/13
f 64/102/15 55/103/15 31/64/15
f 32/63/15 50/104/15 26/105/15
f 25/106/28 124/6/28 118/67/28
f 78/107/15 70/108/15 64/102/15
f 74/109/29 69/110/29 60/111/29
f 80/112/30 68/113/30 66/114/30
f 81/115/31 59/88/31 73/116/31
f 76/117/32 66/93/32 62/77/32
f 79/118/15 67/73/15 81/119/15
f 75/120/15 64/102/15 61/43/15
f 77/121/33 69/122/33 83/123/33
f 76/124/34 63/46/34 77/125/34
f 75/120/15 65/44/15 79/118/15
f 127/126/35 60/127/35 125/25/35
f 84/128/36 58/129/36 70/22/36
f 71/130/37 68/131/37 82/132/37
f 10/133/38 126/134/38 112/29/38
f 45/135/39 71/1/39 82/136/39
f 53/137/40 72/138/40 84/128/40
f 109/139/41 74/140/41 127/126/41
f 17/141/15 79/118/15 33/142/15
f 18/143/21 77/125/21 25/144/21
f 49/145/42 77/146/42 83/147/42
f 17/141/15 78/107/15 75/120/15
f 33/142/43 81/119/43 41/148/43
f 18/149/21 80/150/21 76/117/21
f 41/151/44 73/116/44 3/152/44
f 45/153/21 80/154/21 37/155/21
f 49/156/21 74/140/21 8/157/21
f 29/158/15 84/159/15 78/107/15
f 57/160/45 128/3/45 126/134/45
f 104/161/46 73/116/46 59/88/46
f 7/162/47 105/163/47 72/138/47
f 90/164/48 59/88/48 9/87/48
f 72/138/49 103/165/49 58/129/49
f 96/166/50 53/167/50 29/168/50
f 88/169/4 50/170/4 5/171/4
f 98/172/4 46/173/4 38/174/4
f 3/175/51 99/176/51 41/177/51
f 93/178/4 38/174/4 19/179/4
f 41/177/52 97/180/52 33/181/52
f 94/182/53 29/168/53 17/183/53
f 101/184/4 26/185/4 50/170/4
f 97/180/53 17/186/53 33/181/53
f 95/187/4 19/188/4 26/185/4
f 89/189/54 16/190/54 11/23/54
f 85/191/11 13/192/11 1/193/11
f 13/192/55 90/164/55 9/87/55
f 58/129/56 89/189/56 11/23/56
f 46/173/4 85/194/4 1/195/4
f 16/190/3 88/196/3 5/197/3
f 102/198/57 7/199/57 53/167/57
f 106/200/58 3/152/58 73/116/58
f 126/134/59 106/200/59 104/161/59
f 87/201/60 127/126/60 105/163/60
f 112/29/61 104/161/61 90/164/61
f 105/163/62 125/25/62 103/165/62
f 118/67/63 102/198/63 96/166/63
f 88/169/4 123/58/4 101/184/4
f 120/81/4 100/202/4 98/172/4
f 86/203/64 121/69/64 99/176/64
f 115/82/4 98/172/4 93/178/4
f 99/176/65 119/56/65 97/180/65
f 116/68/66 96/166/66 94/182/66
f 123/58/4 95/187/4 101/184/4
f 119/56/66 94/204/66 97/180/66
f 117/53/4 93/205/4 95/187/4
f 89/189/67 114/7/67 92/206/67
f 107/32/11 91/207/11 85/191/11
f 113/30/68 90/164/68 91/207/68
f 103/165/69 111/27/69 89/189/69
f 122/12/4 85/194/4 100/202/4
f 92/206/3 110/9/3 88/196/3
f 124/6/70 87/208/70 102/198/70
f 128/3/71 86/209/71 106/200/71
f 267/432/75 270/433/75 269/434/75
f 270/435/130 273/436/130 269/437/130
f 274/438/103 271/439/103 273/440/103
f 272/441/131 267/442/131 271/443/131
f 273/444/132 267/445/132 269/446/132
f 270/447/133 272/448/133 274/449/133
f 275/450/75 278/451/75 277/452/75
f 278/453/134 281/454/134 277/455/134
f 282/456/103 279/457/103 281/458/103
f 280/459/135 275/460/135 279/461/135
f 281/462/136 275/463/136 277/464/136
f 278/465/137 280/466/137 282/467/137
f 71/1/138 4/468/138 108/2/138
f 49/4/139 8/469/139 109/5/139
f 114/7/3 14/36/3 6/8/3
f 42/10/4 2/470/4 107/11/4
f 56/13/24 16/35/24 5/14/24
f 48/16/27 15/33/27 2/17/27
f 57/19/26 10/471/26 47/20/26
f 70/22/140 58/129/140 11/23/140
f 125/25/141 60/127/141 12/26/141
f 15/28/142 10/133/142 112/29/142
f 2/31/11 15/28/11 113/30/11
f 47/20/12 10/471/12 15/33/12
f 55/34/143 11/472/143 16/35/143
f 111/27/144 12/26/144 14/36/144
f 22/37/13 24/49/13 36/38/13
f 21/40/12 23/47/12 28/41/12
f 61/43/15 22/37/15 35/39/15
f 62/45/21 21/40/21 27/42/21
f 23/47/17 20/473/17 30/48/17
f 24/49/15 19/65/15 38/50/15
f 30/51/4 20/474/4 115/52/4
f 37/54/18 18/475/18 116/55/18
f 54/57/4 30/51/4 117/53/4
f 28/41/17 30/48/17 54/59/17
f 63/46/26 27/42/26 51/61/26
f 27/42/12 28/41/12 52/60/12
f 22/37/13 31/64/13 32/63/13
f 61/43/15 64/102/15 31/64/15
f 32/63/15 26/105/15 19/65/15
f 18/66/18 25/106/18 118/67/18
f 121/69/145 45/92/145 37/54/145
f 36/38/15 38/50/15 46/70/15
f 65/44/15 35/39/15 43/72/15
f 35/39/13 36/38/13 44/71/13
f 21/74/12 39/78/12 40/75/12
f 62/77/146 66/93/146 39/78/146
f 40/75/17 34/94/17 20/79/17
f 20/80/4 34/95/4 120/81/4
f 43/83/13 44/89/13 13/84/13
f 67/86/147 43/476/147 9/87/147
f 44/89/148 46/477/148 1/90/148
f 108/91/139 4/478/139 45/92/139
f 39/78/12 47/20/12 48/16/12
f 66/93/149 68/21/149 47/20/149
f 40/75/17 48/16/17 42/18/17
f 34/95/4 42/10/4 122/12/4
f 51/61/12 52/60/12 14/96/12
f 60/98/150 69/62/150 51/61/150
f 52/60/151 54/59/151 6/99/151
f 110/100/4 6/479/4 54/57/4
f 31/64/13 55/103/13 56/101/13
f 64/102/15 70/108/15 55/103/15
f 32/63/15 56/101/15 50/104/15
f 25/106/145 49/4/145 124/6/145
f 78/107/15 84/159/15 70/108/15
f 74/109/152 83/480/152 69/110/152
f 80/112/153 82/481/153 68/113/153
f 81/115/154 67/86/154 59/88/154
f 76/117/34 80/150/34 66/93/34
f 79/118/15 65/44/15 67/73/15
f 75/120/15 78/107/15 64/102/15
f 77/121/155 63/482/155 69/122/155
f 76/124/156 62/45/156 63/46/156
f 75/120/15 61/43/15 65/44/15
f 127/126/157 74/140/157 60/127/157
f 84/128/158 72/138/158 58/129/158
f 71/130/159 57/483/159 68/131/159
f 10/133/160 57/160/160 126/134/160
f 45/135/21 4/468/21 71/1/21
f 53/137/161 7/162/161 72/138/161
f 109/139/162 8/157/162 74/140/162
f 17/141/15 75/120/15 79/118/15
f 18/143/21 76/124/21 77/125/21
f 49/145/21 25/484/21 77/146/21
f 17/141/15 29/158/15 78/107/15
f 33/142/15 79/118/15 81/119/15
f 18/149/21 37/485/21 80/150/21
f 41/151/163 81/115/163 73/116/163
f 45/153/164 82/486/164 80/154/164
f 49/156/165 83/487/165 74/140/165
f 29/158/166 53/488/166 84/159/166
f 57/160/167 71/1/167 128/3/167
f 104/161/168 106/200/168 73/116/168
f 7/162/169 87/201/169 105/163/169
f 90/164/170 104/161/170 59/88/170
f 72/138/171 105/163/171 103/165/171
f 96/166/172 102/198/172 53/167/172
f 88/169/4 101/184/4 50/170/4
f 98/172/4 100/202/4 46/173/4
f 3/175/173 86/203/173 99/176/173
f 93/178/4 98/172/4 38/174/4
f 41/177/174 99/176/174 97/180/174
f 94/182/53 96/166/53 29/168/53
f 101/184/4 95/187/4 26/185/4
f 97/180/53 94/204/53 17/186/53
f 95/187/4 93/205/4 19/188/4
f 89/189/67 92/206/67 16/190/67
f 85/191/11 91/207/11 13/192/11
f 13/192/68 91/207/68 90/164/68
f 58/129/175 103/165/175 89/189/175
f 46/173/4 100/202/4 85/194/4
f 16/190/3 92/206/3 88/196/3
f 102/198/176 87/208/176 7/199/176
f 106/200/177 86/209/177 3/152/177
f 126/134/178 128/3/178 106/200/178
f 87/201/179 109/139/179 127/126/179
f 112/29/180 126/134/180 104/161/180
f 105/163/181 127/126/181 125/25/181
f 118/67/182 124/6/182 102/198/182
f 88/169/4 110/100/4 123/58/4
f 120/81/4 122/12/4 100/202/4
f 86/203/183 108/91/183 121/69/183
f 115/82/4 120/81/4 98/172/4
f 99/176/184 121/69/184 119/56/184
f 116/68/66 118/67/66 96/166/66
f 123/58/4 117/53/4 95/187/4
f 119/56/66 116/55/66 94/204/66
f 117/53/4 115/52/4 93/205/4
f 89/189/185 111/27/185 114/7/185
f 107/32/11 113/30/11 91/207/11
f 113/30/186 112/29/186 90/164/186
f 103/165/187 125/25/187 111/27/187
f 122/12/4 107/11/4 85/194/4
f 92/206/3 114/7/3 110/9/3
f 124/6/188 109/5/188 87/208/188
f 128/3/189 108/2/189 86/209/189
f 267/432/75 268/521/75 270/433/75
f 270/435/130 274/522/130 273/436/130
f 274/438/103 272/523/103 271/439/103
f 272/441/131 268/524/131 267/442/131
f 273/444/132 271/525/132 267/445/132
f 270/447/133 268/526/133 272/448/133
f 275/450/75 276/527/75 278/451/75
f 278/453/134 282/528/134 281/454/134
f 282/456/103 280/529/103 279/457/103
f 280/459/135 276/530/135 275/460/135
f 281/462/136 279/531/136 275/463/136
f 278/465/137 276/532/137 280/466/137
usemtl Material
f 186/210/72 135/211/72 146/212/72
f 236/213/73 135/214/73 228/215/73
f 189/216/74 230/217/74 246/218/74
f 141/219/75 260/220/75 255/221/75
f 244/222/76 131/223/76 229/224/76
f 234/225/77 129/226/77 227/227/77
f 214/228/78 231/229/78 250/230/78
f 181/231/79 213/232/79 224/233/79
f 200/234/80 232/235/80 248/236/80
f 182/237/72 200/238/72 210/239/72
f 183/240/72 131/241/72 180/242/72
f 131/243/81 233/244/81 229/245/81
f 247/246/82 142/247/82 234/225/82
f 209/248/83 141/219/83 201/249/83
f 143/250/75 265/251/75 196/252/75
f 133/253/77 235/254/77 230/255/77
f 249/256/84 146/257/84 236/213/84
f 223/258/72 146/212/72 216/259/72
f 178/260/72 217/261/72 222/262/72
f 177/263/79 149/264/79 171/265/79
f 208/266/79 156/267/79 203/268/79
f 175/269/72 150/270/72 172/271/72
f 174/272/72 204/273/72 207/274/72
f 173/275/79 218/276/79 221/277/79
f 172/278/85 237/279/85 241/280/85
f 170/281/79 156/267/79 176/282/79
f 167/283/86 238/284/86 239/285/86
f 169/286/72 158/287/72 178/260/72
f 187/288/87 239/285/87 243/289/87
f 158/287/72 219/290/72 217/261/72
f 157/291/79 159/292/79 149/264/79
f 156/267/79 205/293/79 203/268/79
f 155/294/72 160/295/72 150/270/72
f 154/296/72 206/297/72 204/273/72
f 153/298/79 220/299/79 218/276/79
f 237/279/88 160/300/88 240/301/88
f 152/302/79 164/303/79 156/267/79
f 158/287/72 167/304/72 166/305/72
f 189/306/72 178/260/72 198/307/72
f 196/308/89 170/309/89 176/310/89
f 192/311/90 241/280/90 245/312/90
f 193/313/91 221/277/91 226/314/91
f 194/315/72 207/274/72 212/316/72
f 195/317/72 172/271/72 192/318/72
f 211/319/92 176/320/92 208/321/92
f 197/322/93 171/323/93 191/324/93
f 198/307/72 222/262/72 225/325/72
f 238/284/94 169/326/94 242/327/94
f 135/328/95 243/289/95 228/329/95
f 166/305/72 223/258/72 219/290/72
f 165/330/96 179/331/96 159/332/96
f 164/333/97 209/334/97 205/335/97
f 163/336/72 180/242/72 160/295/72
f 162/337/72 210/239/72 206/297/72
f 161/338/98 224/233/98 220/299/98
f 240/301/99 180/339/99 244/222/99
f 168/340/100 184/341/100 164/333/100
f 166/305/72 187/342/72 186/210/72
f 148/343/72 225/325/72 214/344/72
f 185/345/78 251/346/78 179/331/78
f 143/250/101 211/319/101 199/347/101
f 142/348/72 192/318/72 129/349/72
f 140/350/72 212/316/72 202/351/72
f 137/352/79 226/314/79 215/353/79
f 227/354/102 192/311/102 245/312/102
f 190/355/103 258/356/103 130/357/103
f 133/358/72 198/307/72 148/343/72
f 242/327/104 189/216/104 246/218/104
f 202/351/72 195/317/72 142/348/72
f 199/359/79 193/313/79 137/352/79
f 206/297/72 183/240/72 163/336/72
f 205/293/98 181/231/98 161/338/98
f 211/360/91 173/275/91 193/313/91
f 212/316/72 175/269/72 195/317/72
f 204/273/72 163/336/72 155/294/72
f 203/268/79 161/338/79 153/298/79
f 207/274/72 155/294/72 175/269/72
f 208/266/79 153/298/79 173/275/79
f 209/361/79 139/362/79 181/231/79
f 140/363/78 247/246/78 231/229/78
f 210/239/72 144/364/72 183/240/72
f 144/365/105 248/236/105 233/244/105
f 145/366/106 226/367/106 197/368/106
f 214/344/72 194/315/72 140/350/72
f 165/330/107 224/369/107 185/345/107
f 219/290/72 182/237/72 162/337/72
f 225/325/72 174/272/72 194/315/72
f 226/367/108 177/370/108 197/368/108
f 157/291/79 220/299/79 165/371/79
f 217/261/72 162/337/72 154/296/72
f 221/277/79 157/291/79 177/263/79
f 222/262/72 154/296/72 174/272/72
f 223/258/72 138/372/72 182/237/72
f 138/373/80 249/256/80 232/235/80
f 224/374/109 147/375/109 185/376/109
f 148/377/110 250/230/110 235/254/110
f 235/254/111 215/378/111 145/379/111
f 232/235/112 213/380/112 139/381/112
f 233/244/113 201/382/113 141/383/113
f 231/229/78 199/384/78 137/385/78
f 171/386/114 246/218/114 191/387/114
f 130/357/115 245/312/115 190/355/115
f 168/388/116 244/222/116 188/389/116
f 136/390/117 243/289/117 179/391/117
f 149/392/118 242/327/118 171/386/118
f 245/312/119 170/393/119 190/355/119
f 152/394/103 240/301/103 168/388/103
f 243/289/120 159/395/120 179/391/120
f 239/285/75 149/392/75 159/395/75
f 241/280/121 152/394/121 170/393/121
f 213/380/122 236/213/122 147/396/122
f 134/397/123 235/254/123 145/379/123
f 199/384/124 234/225/124 143/398/124
f 229/245/125 141/383/125 132/399/125
f 248/236/112 139/381/112 201/382/112
f 250/230/78 137/385/78 215/378/78
f 234/225/126 130/400/126 143/398/126
f 244/222/127 132/401/127 188/389/127
f 246/218/128 134/402/128 191/387/128
f 147/396/129 228/215/129 136/403/129
f 263/404/79 255/405/79 260/406/79
f 262/407/79 252/408/79 251/409/79
f 253/410/79 264/411/79 254/412/79
f 258/413/79 265/414/79 259/415/79
f 145/366/103 266/416/103 253/417/103
f 134/402/75 264/418/75 191/387/75
f 196/308/80 257/419/80 190/420/80
f 130/400/78 259/421/78 143/398/78
f 136/390/75 251/422/75 252/423/75
f 136/403/80 261/424/80 147/396/80
f 141/383/80 256/425/80 132/399/80
f 145/379/78 254/426/78 134/397/78
f 191/324/80 266/427/80 197/322/80
f 132/401/103 263/428/103 188/389/103
f 147/375/103 262/429/103 185/376/103
f 188/430/78 260/431/78 184/341/78
f 186/210/72 187/342/72 135/211/72
f 236/213/190 146/257/190 135/214/190
f 189/216/191 133/489/191 230/217/191
f 141/219/75 184/490/75 260/220/75
f 244/222/76 180/339/76 131/223/76
f 234/225/77 142/247/77 129/226/77
f 214/228/78 140/363/78 231/229/78
f 181/231/79 139/362/79 213/232/79
f 200/234/80 138/373/80 232/235/80
f 182/237/72 138/372/72 200/238/72
f 183/240/72 144/364/72 131/241/72
f 131/243/192 144/365/192 233/244/192
f 247/246/78 202/491/78 142/247/78
f 209/248/83 184/490/83 141/219/83
f 143/250/75 259/492/75 265/251/75
f 133/253/77 148/377/77 235/254/77
f 249/256/84 216/493/84 146/257/84
f 223/258/72 186/210/72 146/212/72
f 178/260/72 158/287/72 217/261/72
f 177/263/79 157/291/79 149/264/79
f 208/266/79 176/282/79 156/267/79
f 175/269/72 155/294/72 150/270/72
f 174/272/72 154/296/72 204/273/72
f 173/275/79 153/298/79 218/276/79
f 172/278/88 150/494/88 237/279/88
f 170/281/79 152/302/79 156/267/79
f 167/283/86 151/495/86 238/284/86
f 169/286/72 151/496/72 158/287/72
f 187/288/86 167/283/86 239/285/86
f 158/287/72 166/305/72 219/290/72
f 157/291/79 165/371/79 159/292/79
f 156/267/79 164/303/79 205/293/79
f 155/294/72 163/336/72 160/295/72
f 154/296/72 162/337/72 206/297/72
f 153/298/79 161/338/79 220/299/79
f 237/279/88 150/494/88 160/300/88
f 152/302/79 168/497/79 164/303/79
f 158/287/72 151/496/72 167/304/72
f 189/306/72 169/286/72 178/260/72
f 196/308/89 190/420/89 170/309/89
f 192/311/193 172/278/193 241/280/193
f 193/313/91 173/275/91 221/277/91
f 194/315/72 174/272/72 207/274/72
f 195/317/72 175/269/72 172/271/72
f 211/319/194 196/252/194 176/320/194
f 197/322/93 177/498/93 171/323/93
f 198/307/72 178/260/72 222/262/72
f 238/284/86 151/495/86 169/326/86
f 135/328/95 187/288/95 243/289/95
f 166/305/72 186/210/72 223/258/72
f 165/330/96 185/345/96 179/331/96
f 164/333/195 184/341/195 209/334/195
f 163/336/72 183/240/72 180/242/72
f 162/337/72 182/237/72 210/239/72
f 161/338/98 181/231/98 224/233/98
f 240/301/88 160/300/88 180/339/88
f 168/340/100 188/430/100 184/341/100
f 166/305/72 167/304/72 187/342/72
f 148/343/72 198/307/72 225/325/72
f 185/345/78 262/499/78 251/346/78
f 143/250/101 196/252/101 211/319/101
f 142/348/72 195/317/72 192/318/72
f 140/350/72 194/315/72 212/316/72
f 137/352/79 193/313/79 226/314/79
f 227/354/196 129/500/196 192/311/196
f 190/355/103 257/501/103 258/356/103
f 133/358/72 189/306/72 198/307/72
f 242/327/197 169/326/197 189/216/197
f 202/351/72 212/316/72 195/317/72
f 199/359/79 211/360/79 193/313/79
f 206/297/72 210/239/72 183/240/72
f 205/293/98 209/361/98 181/231/98
f 211/360/91 208/266/91 173/275/91
f 212/316/72 207/274/72 175/269/72
f 204/273/72 206/297/72 163/336/72
f 203/268/79 205/293/79 161/338/79
f 207/274/72 204/273/72 155/294/72
f 208/266/79 203/268/79 153/298/79
f 209/361/79 201/502/79 139/362/79
f 140/363/78 202/491/78 247/246/78
f 210/239/72 200/238/72 144/364/72
f 144/365/105 200/234/105 248/236/105
f 145/366/106 215/503/106 226/367/106
f 214/344/72 225/325/72 194/315/72
f 165/330/198 220/504/198 224/369/198
f 219/290/72 223/258/72 182/237/72
f 225/325/72 222/262/72 174/272/72
f 226/367/199 221/505/199 177/370/199
f 157/291/79 218/276/79 220/299/79
f 217/261/72 219/290/72 162/337/72
f 221/277/79 218/276/79 157/291/79
f 222/262/72 217/261/72 154/296/72
f 223/258/72 216/259/72 138/372/72
f 138/373/80 216/493/80 249/256/80
f 224/374/109 213/506/109 147/375/109
f 148/377/78 214/228/78 250/230/78
f 235/254/200 250/230/200 215/378/200
f 232/235/112 249/256/112 213/380/112
f 233/244/201 248/236/201 201/382/201
f 231/229/78 247/246/78 199/384/78
f 171/386/202 242/327/202 246/218/202
f 130/357/203 227/354/203 245/312/203
f 168/388/103 240/301/103 244/222/103
f 136/390/117 228/329/117 243/289/117
f 149/392/204 238/284/204 242/327/204
f 245/312/205 241/280/205 170/393/205
f 152/394/103 237/279/103 240/301/103
f 243/289/75 239/285/75 159/395/75
f 239/285/75 238/284/75 149/392/75
f 241/280/206 237/279/206 152/394/206
f 213/380/207 249/256/207 236/213/207
f 134/397/123 230/255/123 235/254/123
f 199/384/208 247/246/208 234/225/208
f 229/245/209 233/244/209 141/383/209
f 248/236/112 232/235/112 139/381/112
f 250/230/78 231/229/78 137/385/78
f 234/225/126 227/227/126 130/400/126
f 244/222/127 229/224/127 132/401/127
f 246/218/210 230/217/210 134/402/210
f 147/396/211 236/213/211 228/215/211
f 263/404/79 256/507/79 255/405/79
f 262/407/79 261/508/79 252/408/79
f 253/410/79 266/509/79 264/411/79
f 258/413/79 257/510/79 265/414/79
f 145/366/103 197/368/103 266/416/103
f 134/402/75 254/511/75 264/418/75
f 196/308/80 265/512/80 257/419/80
f 130/400/78 258/513/78 259/421/78
f 136/390/75 179/391/75 251/422/75
f 136/403/80 252/514/80 261/424/80
f 141/383/80 255/515/80 256/425/80
f 145/379/78 253/516/78 254/426/78
f 191/324/80 264/517/80 266/427/80
f 132/401/103 256/518/103 263/428/103
f 147/375/103 261/519/103 262/429/103
f 188/430/78 263/520/78 260/431/78
